/* XPM */
static char * bullet_pfeil_424242_xpm[] = {
"16 16 2 1",
" 	c None",
".	c #424242",
"                ",
"                ",
"                ",
"                ",
"     ...        ",
"      ...       ",
"       ...      ",
"        ...     ",
"         ...    ",
"          ...   ",
"         ...    ",
"        ...     ",
"       ...      ",
"      ...       ",
"     ...        ",
"                "};
