/* XPM */
static char * bullet_424242_xpm[] = {
"16 16 3 1",
" 	c None",
".	c #424242",
"+	c #414141",
"                ",
"                ",
"                ",
"                ",
"                ",
"                ",
"  ..   ..   ..  ",
" ...+ ...+ ...+ ",
" ...+ ...+ ...+ ",
"  .+   .+   .+  ",
"                ",
"                ",
"                ",
"                ",
"                ",
"                "};
