/* XPM */
static char * close_pressed_xpm[] = {
"34 34 51 1",
" 	c #1D2324",
".	c #1C293A",
"+	c #173972",
"@	c #1348A7",
"#	c #114EBE",
"$	c #0F54D2",
"%	c #1348A6",
"&	c #173871",
"*	c #1C2939",
"=	c #1C2837",
"-	c #154290",
";	c #0F56D7",
">	c #0F56D9",
",	c #0F55D7",
"'	c #14459D",
")	c #1B2A3A",
"!	c #19335D",
"~	c #0F54D1",
"{	c #0F54D0",
"]	c #19325B",
"^	c #0F56D8",
"/	c #1C2838",
"(	c #1053CF",
"_	c #1C2836",
":	c #144294",
"<	c #144291",
"[	c #6A96E7",
"}	c #A3BEF0",
"|	c #1157D9",
"1	c #1057D9",
"2	c #9DBAEF",
"3	c #719BE8",
"4	c #173870",
"5	c #A2BDF0",
"6	c #FFFFFF",
"7	c #A4BFF1",
"8	c #1347A4",
"9	c #114FBF",
"0	c #9EBBF0",
"a	c #A5BFF1",
"b	c #124EBD",
"c	c #17386F",
"d	c #144393",
"e	c #154190",
"f	c #1053CE",
"g	c #1B2835",
"h	c #183259",
"i	c #1C2733",
"j	c #16408B",
"k	c #154497",
"l	c #1347A5",
"                                  ",
"                                  ",
"                                  ",
"                                  ",
"                                  ",
"            .+@#$$#%&*            ",
"          =-;>>>>>>>>,')          ",
"         !~>>>>>>>>>>>>{]         ",
"        +,>>>>>>>>>>>>>>,+        ",
"       !,^>>>>>>>>>>>>>>>,]       ",
"      /~>>>>>>>>>>>>>>>>>>(_      ",
"      :>>>>>>>>>>>>>>>>>>>><      ",
"     .,>>>>>>>>>>>>>>>>>>>>,/     ",
"     +>>>>>>>[}|>>123>>>>>>>4     ",
"     %>>>>>>>567||765>>>>>>>8     ",
"     9>>>>>>>|767767|>>>>>>>#     ",
"     ~>>>>>>>>12667|>>>>>>>>~     ",
"     ~>>>>>>>>1066a|>>>>>>>>(     ",
"     #>>>>>>>|767767|>>>>>>>b     ",
"     %>>>>>>>567||765>>>>>>>8     ",
"     &>>>>>>>[5|>>|5[>>>>>>>c     ",
"     *,>>>>>>>>>>>>>>>>>>>>;=     ",
"      d>>>>>>>>>>>>>>>>>>>>e      ",
"      ={>>>>>>>>>>>>>>>>>>fg      ",
"       ],>>>>>>>>>>>>>>>>,h       ",
"        +,>>>>>>>>>>>>>>,4        ",
"         ]{>>>>>>>>>>>>fh         ",
"          ij;>>>>>>>>,kg          ",
"            /4lb~~b8c=            ",
"                                  ",
"                                  ",
"                                  ",
"                                  ",
"                                  "};
