/* XPM */
static char * label_active_xpm[] = {
"34 34 3 1",
" 	c #1D2324",
".	c #1D2324",
"+	c #FFFFFF",
"                                  ",
"                                  ",
"..................................",
"..................................",
"..................................",
"..................................",
"..................................",
"..................................",
"..................................",
"..................................",
"..................................",
"..................................",
"..................................",
"..................................",
"..................................",
"..................................",
"..................................",
"..................................",
"..................................",
"..................................",
"..................................",
"..................................",
"..................................",
"..................................",
"..................................",
"..................................",
"..................................",
"..................................",
"..................................",
"..................................",
"..................................",
"..................................",
"..................................",
".................................."};
