/* XPM */
static char * menu_xpm[] = {
"16 28 3 1",
" 	c None",
".	c #1d2324",
"+	c #1d2324",

"++++++++++++++++",
"++++++++++++++++",
"................",
"................",
"................",
"................",
"................",
"................",
"................",
"................",
"................",
"................",
"................",
"................",
"................",
"................",
"................",
"................",
"................",
"................",
"................",
"................",
"................",
"................",
"................",
"................",
"................",
"................"};

