/* XPM */
static char * menu_inactive_xpm[] = {
"34 36 6 1",
" 	c #424242",
".	c #595959",
"+	c #888888",
"@	c #878787",
"#	c #585858",
"$	c #909090",
"                                  ",
"                                  ",
"                                  ",
"                                  ",
"                                  ",
"                                  ",
"                                  ",
"                                  ",
"                                  ",
"                                  ",
"                                  ",
"                                  ",
"                                  ",
"                                  ",
"                                  ",
"                                  ",
"          .+@# .+@# .+@#          ",
"          @$$+ @$$+ @$$+          ",
"          @$$+ @$$+ @$$+          ",
"          #@+# #@+# #@+#          ",
"                                  ",
"                                  ",
"                                  ",
"                                  ",
"                                  ",
"                                  ",
"                                  ",
"                                  ",
"                                  ",
"                                  ",
"                                  ",
"                                  ",
"                                  ",
"                                  ",
"                                  ",
"                                  "};
