/* XPM */
static char * shade_toggled_pressed_xpm[] = {
"34 36 55 1",
" 	c #1D2324",
".	c #1C293A",
"+	c #173972",
"@	c #1348A7",
"#	c #114EBE",
"$	c #0F54D2",
"%	c #1348A6",
"&	c #173871",
"*	c #1C2939",
"=	c #1C2837",
"-	c #154290",
";	c #0F56D7",
">	c #0F56D9",
",	c #0F55D7",
"'	c #14459D",
")	c #1B2A3A",
"!	c #19335D",
"~	c #0F54D1",
"{	c #0F54D0",
"]	c #19325B",
"^	c #0F56D8",
"/	c #1C2838",
"(	c #1053CF",
"_	c #1C2836",
":	c #144294",
"<	c #144291",
"[	c #173870",
"}	c #195DDB",
"|	c #79A1EA",
"1	c #1157D9",
"2	c #1347A4",
"3	c #114FBF",
"4	c #B9CEF4",
"5	c #FFFFFF",
"6	c #A1BDF0",
"7	c #477EE2",
"8	c #F3F6FD",
"9	c #A3BEF0",
"0	c #1057D9",
"a	c #9CB9EF",
"b	c #F6F8FE",
"c	c #4C81E3",
"d	c #4A80E2",
"e	c #F5F8FD",
"f	c #124EBD",
"g	c #17386F",
"h	c #144393",
"i	c #154190",
"j	c #1053CE",
"k	c #1B2835",
"l	c #183259",
"m	c #1C2733",
"n	c #16408B",
"o	c #154497",
"p	c #1347A5",
"                                  ",
"                                  ",
"                                  ",
"                                  ",
"                                  ",
"                                  ",
"            .+@#$$#%&*            ",
"          =-;>>>>>>>>,')          ",
"         !~>>>>>>>>>>>>{]         ",
"        +,>>>>>>>>>>>>>>,+        ",
"       !,^>>>>>>>>>>>>>>>,]       ",
"      /~>>>>>>>>>>>>>>>>>>(_      ",
"      :>>>>>>>>>>>>>>>>>>>><      ",
"     .,>>>>>>>>>>>>>>>>>>>>,/     ",
"     +>>>>>>>>>>>>>>>>>>>>>>[     ",
"     %>>>>>}|1>>>>>>1|}>>>>>2     ",
"     3>>>>>4561>>>>1654>>>>>#     ",
"     ~>>>>>78591>>0a5bc>>>>>~     ",
"     ~>>>>>>785910a5bc>>>>>>(     ",
"     #>>>>>>>de5665ed>>>>>>>f     ",
"     %>>>>>>>>7855bc>>>>>>>>2     ",
"     &>>>>>>>>>78bc>>>>>>>>>g     ",
"     *,>>>>>>>>>dd>>>>>>>>>;=     ",
"      h>>>>>>>>>>>>>>>>>>>>i      ",
"      ={>>>>>>>>>>>>>>>>>>jk      ",
"       ],>>>>>>>>>>>>>>>>,l       ",
"        +,>>>>>>>>>>>>>>,[        ",
"         ]{>>>>>>>>>>>>jl         ",
"          mn;>>>>>>>>,ok          ",
"            /[pf~~f2g=            ",
"                                  ",
"                                  ",
"                                  ",
"                                  ",
"                                  ",
"                                  "};
