/* XPM */
static char * shade_toggled_prelight_xpm[] = {
"34 36 57 1",
" 	c #1D2324",
".	c #31383D",
"+	c #646F7E",
"@	c #94A4BC",
"#	c #A8B9D6",
"$	c #BBCEED",
"%	c #93A3BB",
"&	c #636E7D",
"*	c #30373C",
"=	c #2F363A",
"-	c #808EA2",
";	c #C0D3F3",
">	c #C2D5F6",
",	c #C0D3F4",
"'	c #8B9AB0",
")	c #313A3E",
"!	c #515B66",
"~	c #BBCDEC",
"{	c #C1D5F6",
"]	c #BACCEB",
"^	c #4F5964",
"/	c #64717F",
"(	c #C2D4F6",
"_	c #4F5863",
":	c #2F363B",
"<	c #B9CBEA",
"[	c #2E3539",
"}	c #8290A5",
"|	c #808FA3",
"1	c #626D7C",
"2	c #798799",
"3	c #92A1B9",
"4	c #ABBCD8",
"5	c #4D5761",
"6	c #5E6976",
"7	c #BACDEC",
"8	c #9BABC4",
"9	c #262C2F",
"0	c #5D6875",
"a	c #C1D4F5",
"b	c #616D7A",
"c	c #242A2D",
"d	c #98A8C0",
"e	c #A9BAD6",
"f	c #99A9C2",
"g	c #A9B9D5",
"h	c #626D7B",
"i	c #8290A4",
"j	c #808DA2",
"k	c #B9CAEB",
"l	c #2D3538",
"m	c #4D5861",
"n	c #B9CAEA",
"o	c #2B3235",
"p	c #7B889C",
"q	c #8694A9",
"r	c #92A2BA",
"                                  ",
"                                  ",
"                                  ",
"                                  ",
"                                  ",
"                                  ",
"            .+@#$$#%&*            ",
"          =-;>>>>>>>>,')          ",
"         !~>{>>>>>>>>{>]^         ",
"        /,>>>>>>>>>>>>>>,+        ",
"       !,(>>>>>>>>>>>>>>{,_       ",
"      :~>>>>>>>>>>>>>>>>>><[      ",
"      }>>>>>>>>>>>>>>>>>>>>|      ",
"     .,{>>>>>>>>>>>>>>>>>>{,:     ",
"     +>>>>>>>>>>>>>>>>>>>>>>1     ",
"     %>>>>>$2,>>>>>>,2$>>>>>3     ",
"     4>>>>>5 6,>>>>,6 5>>>>>#     ",
"     7>>>>>89 0,>>ab cd>>>>>7     ",
"     7>>>>>>89 0,ab cd>>>>>><     ",
"     e>>>>>>>fc 66 cf>>>>>>>g     ",
"     %>>>>>>>>89  cd>>>>>>>>3     ",
"     &>>>>>>>>>89cd>>>>>>>>>h     ",
"     *,{>>>>>>>>ff>>>>>>>>>;=     ",
"      i>>>>>>>>>>>>>>>>>>>>j      ",
"      =]>>>>>>>>>>>>>>>>>>kl      ",
"       ^,{>>>>>>>>>>>>>>{,m       ",
"        +,>>>>>>>>>>>>>>,1        ",
"         ^]>>>>>>>>>>>>nm         ",
"          op;>>>>>>>>,ql          ",
"            :1rg77g3h=            ",
"                                  ",
"                                  ",
"                                  ",
"                                  ",
"                                  ",
"                                  "};
