/* XPM */
static char * shade_prelight_xpm[] = {
"34 36 56 1",
" 	c #1D2324",
".	c #31383D",
"+	c #646F7E",
"@	c #94A4BC",
"#	c #A8B9D6",
"$	c #BBCEED",
"%	c #93A3BB",
"&	c #636E7D",
"*	c #30373C",
"=	c #2F363A",
"-	c #808EA2",
";	c #C0D3F3",
">	c #C2D5F6",
",	c #C0D3F4",
"'	c #8B9AB0",
")	c #313A3E",
"!	c #515B66",
"~	c #BBCDEC",
"{	c #C1D5F6",
"]	c #BACCEB",
"^	c #4F5964",
"/	c #64717F",
"(	c #C2D4F6",
"_	c #4F5863",
":	c #2F363B",
"<	c #B9CBEA",
"[	c #2E3539",
"}	c #8290A5",
"|	c #808FA3",
"1	c #99A9C2",
"2	c #9BABC4",
"3	c #252B2E",
"4	c #242A2D",
"5	c #98A7BF",
"6	c #626D7C",
"7	c #92A1B9",
"8	c #ABBCD8",
"9	c #5E6976",
"0	c #BACDEC",
"a	c #5D6875",
"b	c #C1D4F5",
"c	c #626D7B",
"d	c #A9BAD6",
"e	c #4D5761",
"f	c #A9B9D5",
"g	c #798799",
"h	c #8290A4",
"i	c #808DA2",
"j	c #B9CAEB",
"k	c #2D3538",
"l	c #4D5861",
"m	c #B9CAEA",
"n	c #2B3235",
"o	c #7B889C",
"p	c #8694A9",
"q	c #92A2BA",
"                                  ",
"                                  ",
"                                  ",
"                                  ",
"                                  ",
"                                  ",
"            .+@#$$#%&*            ",
"          =-;>>>>>>>>,')          ",
"         !~>{>>>>>>>>{>]^         ",
"        /,>>>>>>>>>>>>>>,+        ",
"       !,(>>>>>>>>>>>>>>{,_       ",
"      :~>>>>>>>>>>>>>>>>>><[      ",
"      }>>>>>>>>>>>>>>>>>>>>|      ",
"     .,{>>>>>>>>11>>>>>>>>{,:     ",
"     +>>>>>>>>>2345>>>>>>>>>6     ",
"     %>>>>>>>>23  45>>>>>>>>7     ",
"     8>>>>>>>14 99 41>>>>>>>#     ",
"     0>>>>>>23 a,bc 45>>>>>>0     ",
"     0>>>>>23 a,>>bc 45>>>>><     ",
"     d>>>>>e 9,>>>>,9 e>>>>>f     ",
"     %>>>>>$g,>>>>>>,g$>>>>>7     ",
"     &>>>>>>>>>>>>>>>>>>>>>>c     ",
"     *,{>>>>>>>>>>>>>>>>>>>;=     ",
"      h>>>>>>>>>>>>>>>>>>>>i      ",
"      =]>>>>>>>>>>>>>>>>>>jk      ",
"       ^,{>>>>>>>>>>>>>>{,l       ",
"        +,>>>>>>>>>>>>>>,6        ",
"         ^]>>>>>>>>>>>>ml         ",
"          no;>>>>>>>>,pk          ",
"            :6qf00f7c=            ",
"                                  ",
"                                  ",
"                                  ",
"                                  ",
"                                  ",
"                                  "};
