/* XPM */
static char * stick_toggled_active_xpm[] = {
"34 36 34 1",
" 	c #1D2324",
".	c #23292A",
"+	c #7E8282",
"@	c #CED0D0",
"#	c #F5F6F6",
"$	c #7E8182",
"%	c #353A3B",
"&	c #D5D6D7",
"*	c #FFFFFF",
"=	c #D4D6D6",
"-	c #E5E6E6",
";	c #676B6B",
">	c #292E2F",
",	c #646869",
"'	c #DCDDDE",
")	c #2D3333",
"!	c #2C3233",
"~	c #7D8081",
"{	c #CFD0D1",
"]	c #5F6464",
"^	c #E7E8E8",
"/	c #E6E7E7",
"(	c #5E6263",
"_	c #686C6D",
":	c #CDCFCF",
"<	c #F4F5F5",
"[	c #292F30",
"}	c #F3F4F4",
"|	c #2A3031",
"1	c #5D6162",
"2	c #696D6E",
"3	c #2E3334",
"4	c #222829",
"5	c #CCCECE",
"                                  ",
"                                  ",
"                                  ",
"                                  ",
"                                  ",
"                                  ",
"                                  ",
"                                  ",
"                                  ",
"                                  ",
"                                  ",
"                                  ",
"             .+@##@$.             ",
"            %&******=%            ",
"           .&*-;>>,'*=.           ",
"           +*-)    !-*~           ",
"           {*; ]^/( _*:           ",
"           <*> /**- [*}           ",
"           <*> /**- |*}           ",
"           {*, (/-1 2*:           ",
"           $*'!    3/*~           ",
"           .=*-_[[2/*=4           ",
"            %=******=%            ",
"             4~:<<5~4             ",
"                                  ",
"                                  ",
"                                  ",
"                                  ",
"                                  ",
"                                  ",
"                                  ",
"                                  ",
"                                  ",
"                                  ",
"                                  ",
"                                  "};
