/* XPM */
static char * bg_active_xpm[] = {
"28 28 35 1",
" 	c #47B1DB",
".	c #45B0D9",
"+	c #41ADD7",
"@	c #42ADD6",
"#	c #3FA9D4",
"$	c #3FAAD4",
"%	c #3BA6D1",
"&	c #3CA6D2",
"*	c #37A3CF",
"=	c #38A3CF",
"-	c #349FCC",
";	c #2F9CC9",
">	c #2B97C6",
",	c #2B98C6",
"'	c #2692C3",
")	c #2793C3",
"!	c #238FBF",
"~	c #2390C0",
"{	c #1F8BBC",
"]	c #1E8ABC",
"^	c #1B86B9",
"/	c #1B87B9",
"(	c #1883B5",
"_	c #1783B5",
":	c #157FB2",
"<	c #147EB2",
"[	c #127BAF",
"}	c #0F78AC",
"|	c #0F78AD",
"1	c #0D74AA",
"2	c #0C74A9",
"3	c #0A70A7",
"4	c #0A70A8",
"5	c #096EA6",
"6	c #086DA4",
"                            ",
"                            ",
"............................",
"+@+@@+@++@+@@+@++@+@+@+@@+@+",
"#$#$$#$##$#$$#$##$#$#$#$$#$#",
"%&%&&%&%%&%&&%&%%&%&%&%&&%&%",
"*=*==*=**=*==*=**=*=*=*==*=*",
"----------------------------",
";;;;;;;;;;;;;;;;;;;;;;;;;;;;",
">,>,,>,>>,>,,>,>>,>,>,>,,>,>",
"')'))')'')'))')'')')')'))')'",
"!~!~~!~!!~!~~!~!!~!~!~!~~!~!",
"{]{]]{]{{]{]]{]{{]{]{]{]]{]{",
"^/^//^/^^/^//^/^^/^/^/^//^/^",
"(_(__(_((_(__(_((_(_(_(__(_(",
":<:<<:<::<:<<:<::<:<:<:<<:<:",
"[[[[[[[[[[[[[[[[[[[[[[[[[[[[",
"}|}||}|}}|}||}|}}|}|}|}||}|}",
"1212212112122121121212122121",
"3434434334344343343434344343",
"5555555555555555555555555555",
"6666666666666666666666666666",
"6666666666666666666666666666",
"6666666666666666666666666666",
"6666666666666666666666666666",
"6666666666666666666666666666",
"6666666666666666666666666666",
"6666666666666666666666666666"};
