/* XPM */
static char * close_active_xpm[] = {
"28 28 71 1",
" 	c #3FAAD4",
".	c #3FA9D4",
"+	c #38A5D0",
"@	c #2B98C6",
"#	c #208CBE",
"$	c #1883B5",
"%	c #147EB2",
"&	c #1680B3",
"*	c #1D89BB",
"=	c #2592C2",
"-	c #339FCC",
";	c #3EA8D3",
">	c #3BA7D2",
",	c #3CA6D2",
"'	c #3BA6D1",
")	c #309DC9",
"!	c #147CB2",
"~	c #1079AE",
"{	c #127AAF",
"]	c #2895C4",
"^	c #37A4CF",
"/	c #38A3CF",
"(	c #37A3CF",
"_	c #2793C3",
":	c #127BAF",
"<	c #147CB0",
"[	c #1F8BBC",
"}	c #38A4CF",
"|	c #349FCC",
"1	c #167FB3",
"2	c #1E8ABC",
"3	c #319DCA",
"4	c #309CC9",
"5	c #2F9CC9",
"6	c #2A96C4",
"7	c #1985B7",
"8	c #FFFFFF",
"9	c #1580B2",
"0	c #238FBF",
"a	c #2F9AC9",
"b	c #2B97C6",
"c	c #1783B5",
"d	c #1B85B8",
"e	c #2591C1",
"f	c #1B86B9",
"g	c #1A84B8",
"h	c #218CBE",
"i	c #1C87BA",
"j	c #1F8ABB",
"k	c #1B87B9",
"l	c #228DBE",
"m	c #2390C1",
"n	c #2490C0",
"o	c #2692C1",
"p	c #2895C3",
"q	c #0F78AD",
"r	c #2C98C6",
"s	c #2996C5",
"t	c #0C74A9",
"u	c #2E9AC8",
"v	c #0D74AA",
"w	c #0A70A7",
"x	c #0A70A8",
"y	c #0B71A8",
"z	c #096FA5",
"A	c #096EA6",
"B	c #096FA6",
"C	c #0F79AD",
"D	c #086DA4",
"E	c #36A3CE",
"F	c #096EA5",
"                            ",
"                            ",
"                            ",
"                            ",
"    .   +@#$%%&*=-;  .      ",
">>>,'>>)*!~~~~~~{$]+''>>>>>>",
"^^^//(_&::{:::{:{:<[-}(^^^^^",
"||||-=1!%%!%%!%!%!%%23-|||||",
"444567&&889&1&1&&88&&0a44444",
"@@@b[$$$888$$$cc888$$d_@@@@@",
"===efgddd888ddd888dgggh=====",
"000hiiiiii888i888iiiii200000",
"2222[[[[22288888222j[[[22222",
"kkk*lhllllll888lllllll#kkkkk",
"$$$immnmmmm88888mmmmmml$$$$$",
"%%%g===o==888=888==o==h%%%%%",
":::&_p]]]888]]]888]]]]i:::::",
"qqq{0@@r888rrr@@888r@s9qqqqq",
"tttt&@aa88uuuuuuu88ua[vttttt",
"wwwxyk33333333333333=qywwwww",
"zzzABw23||-------|-_Czzzzzzz",
"DDDDDDBcb(EEE(EEE3#vDDDDDDDD",
"DDDDDDDDv7eu||3]2:FDDDDDDDDD",
"zzzzzzzzzzzzzzzzzzzzzzzzzzzz",
"zzzzzzzzzzzzzzzzzzzzzzzzzzzz",
"zzzzzzzzzzzzzzzzzzzzzzzzzzzz",
"zzzzzzzzzzzzzzzzzzzzzzzzzzzz",
"zzzzzzzzzzzzzzzzzzzzzzzzzzzz"};
