/* XPM */
static char * close_pressed_xpm[] = {
"28 28 95 2",
"  	c #47B1DB",
". 	c #45B0D9",
"+ 	c #41ADD7",
"@ 	c #42ADD6",
"# 	c #3FA9D4",
"$ 	c #3FAAD4",
"% 	c #38A5D0",
"& 	c #69B6D6",
"* 	c #A5D1E5",
"= 	c #D5E8F1",
"- 	c #F3F8FB",
"; 	c #FFFFFF",
"> 	c #F4F9FB",
", 	c #D6E9F2",
"' 	c #A7D3E6",
") 	c #6FBBDB",
"! 	c #3EA8D3",
"~ 	c #3BA6D1",
"{ 	c #3CA6D2",
"] 	c #3BA7D2",
"^ 	c #73BCDA",
"/ 	c #D5E9F2",
"( 	c #D7EBF4",
"_ 	c #78C2DF",
": 	c #37A3CF",
"< 	c #38A3CF",
"[ 	c #A0CFE4",
"} 	c #A5D4E8",
"| 	c #38A4CF",
"1 	c #37A4CF",
"2 	c #349FCC",
"3 	c #339FCC",
"4 	c #A8D3E6",
"5 	c #ADD8EA",
"6 	c #2F9CC9",
"7 	c #87C4DD",
"8 	c #086CA4",
"9 	c #8AC6E0",
"0 	c #309CC9",
"a 	c #2B97C6",
"b 	c #2B98C6",
"c 	c #399ECA",
"d 	c #F6FAFC",
"e 	c #399FCA",
"f 	c #2692C3",
"g 	c #2793C3",
"h 	c #89C3DD",
"i 	c #89C4DE",
"j 	c #238FBF",
"k 	c #2390C0",
"l 	c #C9E3EF",
"m 	c #1F8BBC",
"n 	c #1E8ABC",
"o 	c #F0F7FA",
"p 	c #1B86B9",
"q 	c #1B87B9",
"r 	c #1883B5",
"s 	c #1783B5",
"t 	c #157FB2",
"u 	c #147EB2",
"v 	c #C7E1ED",
"w 	c #C5DFEC",
"x 	c #127BAF",
"y 	c #81BAD6",
"z 	c #7FB8D4",
"A 	c #0F78AC",
"B 	c #0F78AD",
"C 	c #2283B4",
"D 	c #F5FAFB",
"E 	c #1F81B2",
"F 	c #0D74AA",
"G 	c #0C74A9",
"H 	c #7CB7D4",
"I 	c #77B1CF",
"J 	c #0A70A7",
"K 	c #0A70A8",
"L 	c #0B71A8",
"M 	c #A4CFE3",
"N 	c #9FC9DE",
"O 	c #096EA6",
"P 	c #096FA6",
"Q 	c #9CCBE1",
"R 	c #95C4DA",
"S 	c #096FA5",
"T 	c #086DA4",
"U 	c #62ABCD",
"V 	c #D5E9F3",
"W 	c #5BA1C5",
"X 	c #5CA8CC",
"Y 	c #D9ECF5",
"Z 	c #F5FAFC",
"` 	c #D8EBF4",
" .	c #A5D0E4",
"..	c #57A1C6",
"+.	c #096EA5",
"                                                        ",
"                                                        ",
". . . . . . . . . . . . . . . . . . . . . . . . . . . . ",
"+ @ + @ @ + @ + + @ + @ @ + @ + + @ + @ + @ + @ @ + @ + ",
"# $ # $ # $ $ $ % & * = - ; > , ' ) ! $ $ # $ $ $ # $ # ",
"~ { ~ { ~ ] ] ^ / ; ; ; ; ; ; ; ; ; ( _ ~ ~ ] ] { ~ { ~ ",
": < : < < : [ ; ; ; ; ; ; ; ; ; ; ; ; ; } | : 1 < : < : ",
"2 2 2 2 3 4 ; ; ; ; ; ; ; ; ; ; ; ; ; ; ; 5 3 2 2 2 2 2 ",
"6 6 6 6 7 ; ; ; 8 8 ; ; ; ; ; ; ; 8 8 ; ; ; 9 0 6 6 6 6 ",
"a b a c d ; ; ; 8 8 8 ; ; ; ; ; 8 8 8 ; ; ; d e b a b a ",
"f g f h ; ; ; ; ; 8 8 8 ; ; ; 8 8 8 ; ; ; ; ; i g f g f ",
"j k j l ; ; ; ; ; ; 8 8 8 ; 8 8 8 ; ; ; ; ; ; l k j k j ",
"m n m o ; ; ; ; ; ; ; 8 8 8 8 8 ; ; ; ; ; ; ; o n m n m ",
"p q p ; ; ; ; ; ; ; ; ; 8 8 8 ; ; ; ; ; ; ; ; ; q p q p ",
"r s r o ; ; ; ; ; ; ; 8 8 8 8 8 ; ; ; ; ; ; ; o s r s r ",
"t u t v ; ; ; ; ; ; 8 8 8 ; 8 8 8 ; ; ; ; ; ; w u t u t ",
"x x x y ; ; ; ; ; 8 8 8 ; ; ; 8 8 8 ; ; ; ; ; z x x x x ",
"A B A C d ; ; ; 8 8 8 ; ; ; ; ; 8 8 8 ; ; ; D E B A B A ",
"F G F G H ; ; ; 8 8 ; ; ; ; ; ; ; 8 8 ; ; ; I G G F G F ",
"J K J K L M ; ; ; ; ; ; ; ; ; ; ; ; ; ; ; N L J K J K J ",
"O O O O P J Q ; ; ; ; ; ; ; ; ; ; ; ; ; R S S S O O O O ",
"T T T T T T P U ( ; ; ; ; ; ; ; ; ; V W T T T T T T T T ",
"T T T T T T T T F X ' Y Z ; Z `  ...+.T T T T T T T T T ",
"T T T T T T T T T T T T T T T T T T T T T T T T T T T T ",
"T T T T T T T T T T T T T T T T T T T T T T T T T T T T ",
"T T T T T T T T T T T T T T T T T T T T T T T T T T T T ",
"T T T T T T T T T T T T T T T T T T T T T T T T T T T T ",
"T T T T T T T T T T T T T T T T T T T T T T T T T T T T "};
