/* XPM */
static char * hide_pressed_xpm[] = {
"28 28 95 2",
"  	c #47B1DB",
". 	c #45B0D9",
"+ 	c #41ADD7",
"@ 	c #42ADD6",
"# 	c #3FA9D4",
"$ 	c #3FAAD4",
"% 	c #38A5D0",
"& 	c #69B6D6",
"* 	c #A5D1E5",
"= 	c #D5E8F1",
"- 	c #F3F8FB",
"; 	c #FFFFFF",
"> 	c #F4F9FB",
", 	c #D6E9F2",
"' 	c #A7D3E6",
") 	c #6FBBDB",
"! 	c #3EA8D3",
"~ 	c #3BA6D1",
"{ 	c #3CA6D2",
"] 	c #3BA7D2",
"^ 	c #73BCDA",
"/ 	c #D5E9F2",
"( 	c #D7EBF4",
"_ 	c #78C2DF",
": 	c #37A3CF",
"< 	c #38A3CF",
"[ 	c #A0CFE4",
"} 	c #A5D4E8",
"| 	c #38A4CF",
"1 	c #37A4CF",
"2 	c #349FCC",
"3 	c #339FCC",
"4 	c #A8D3E6",
"5 	c #ADD8EA",
"6 	c #2F9CC9",
"7 	c #87C4DD",
"8 	c #8AC6E0",
"9 	c #309CC9",
"0 	c #2B97C6",
"a 	c #2B98C6",
"b 	c #399ECA",
"c 	c #F6FAFC",
"d 	c #399FCA",
"e 	c #2692C3",
"f 	c #2793C3",
"g 	c #89C3DD",
"h 	c #89C4DE",
"i 	c #238FBF",
"j 	c #2390C0",
"k 	c #C9E3EF",
"l 	c #1F8BBC",
"m 	c #1E8ABC",
"n 	c #F0F7FA",
"o 	c #1B86B9",
"p 	c #1B87B9",
"q 	c #1883B5",
"r 	c #1783B5",
"s 	c #157FB2",
"t 	c #147EB2",
"u 	c #C7E1ED",
"v 	c #C5DFEC",
"w 	c #127BAF",
"x 	c #81BAD6",
"y 	c #086CA4",
"z 	c #7FB8D4",
"A 	c #0F78AC",
"B 	c #0F78AD",
"C 	c #2283B4",
"D 	c #F5FAFB",
"E 	c #1F81B2",
"F 	c #0D74AA",
"G 	c #0C74A9",
"H 	c #7CB7D4",
"I 	c #77B1CF",
"J 	c #0A70A7",
"K 	c #0A70A8",
"L 	c #0B71A8",
"M 	c #A4CFE3",
"N 	c #9FC9DE",
"O 	c #096EA6",
"P 	c #096FA6",
"Q 	c #9CCBE1",
"R 	c #95C4DA",
"S 	c #096FA5",
"T 	c #086DA4",
"U 	c #62ABCD",
"V 	c #D5E9F3",
"W 	c #5BA1C5",
"X 	c #5CA8CC",
"Y 	c #D9ECF5",
"Z 	c #F5FAFC",
"` 	c #D8EBF4",
" .	c #A5D0E4",
"..	c #57A1C6",
"+.	c #096EA5",
"                                                        ",
"                                                        ",
". . . . . . . . . . . . . . . . . . . . . . . . . . . . ",
"+ @ + @ @ + @ + + @ + @ @ + @ + + @ + @ + @ + @ @ + @ + ",
"# $ # $ # $ $ $ % & * = - ; > , ' ) ! $ $ # $ $ $ # $ # ",
"~ { ~ { ~ ] ] ^ / ; ; ; ; ; ; ; ; ; ( _ ~ ~ ] ] { ~ { ~ ",
": < : < < : [ ; ; ; ; ; ; ; ; ; ; ; ; ; } | : 1 < : < : ",
"2 2 2 2 3 4 ; ; ; ; ; ; ; ; ; ; ; ; ; ; ; 5 3 2 2 2 2 2 ",
"6 6 6 6 7 ; ; ; ; ; ; ; ; ; ; ; ; ; ; ; ; ; 8 9 6 6 6 6 ",
"0 a 0 b c ; ; ; ; ; ; ; ; ; ; ; ; ; ; ; ; ; c d a 0 a 0 ",
"e f e g ; ; ; ; ; ; ; ; ; ; ; ; ; ; ; ; ; ; ; h f e f e ",
"i j i k ; ; ; ; ; ; ; ; ; ; ; ; ; ; ; ; ; ; ; k j i j i ",
"l m l n ; ; ; ; ; ; ; ; ; ; ; ; ; ; ; ; ; ; ; n m l m l ",
"o p o ; ; ; ; ; ; ; ; ; ; ; ; ; ; ; ; ; ; ; ; ; p o p o ",
"q r q n ; ; ; ; ; ; ; ; ; ; ; ; ; ; ; ; ; ; ; n r q r q ",
"s t s u ; ; ; ; ; ; ; ; ; ; ; ; ; ; ; ; ; ; ; v t s t s ",
"w w w x ; ; ; ; y y y y y y y y y y y ; ; ; ; z w w w w ",
"A B A C c ; ; ; y y y y y y y y y y y ; ; ; D E B A B A ",
"F G F G H ; ; ; ; ; ; ; ; ; ; ; ; ; ; ; ; ; I G G F G F ",
"J K J K L M ; ; ; ; ; ; ; ; ; ; ; ; ; ; ; N L J K J K J ",
"O O O O P J Q ; ; ; ; ; ; ; ; ; ; ; ; ; R S S S O O O O ",
"T T T T T T P U ( ; ; ; ; ; ; ; ; ; V W T T T T T T T T ",
"T T T T T T T T F X ' Y Z ; Z `  ...+.T T T T T T T T T ",
"T T T T T T T T T T T T T T T T T T T T T T T T T T T T ",
"T T T T T T T T T T T T T T T T T T T T T T T T T T T T ",
"T T T T T T T T T T T T T T T T T T T T T T T T T T T T ",
"T T T T T T T T T T T T T T T T T T T T T T T T T T T T ",
"T T T T T T T T T T T T T T T T T T T T T T T T T T T T "};
