/* XPM */
static char * hide_active_xpm[] = {
"28 28 71 1",
" 	c #3FAAD4",
".	c #3FA9D4",
"+	c #38A5D0",
"@	c #2B98C6",
"#	c #208CBE",
"$	c #1883B5",
"%	c #147EB2",
"&	c #1680B3",
"*	c #1D89BB",
"=	c #2592C2",
"-	c #339FCC",
";	c #3EA8D3",
">	c #3BA7D2",
",	c #3CA6D2",
"'	c #3BA6D1",
")	c #309DC9",
"!	c #147CB2",
"~	c #1079AE",
"{	c #127AAF",
"]	c #2895C4",
"^	c #37A4CF",
"/	c #38A3CF",
"(	c #37A3CF",
"_	c #2793C3",
":	c #127BAF",
"<	c #147CB0",
"[	c #1F8BBC",
"}	c #38A4CF",
"|	c #349FCC",
"1	c #167FB3",
"2	c #1E8ABC",
"3	c #319DCA",
"4	c #309CC9",
"5	c #2F9CC9",
"6	c #2A96C4",
"7	c #1985B7",
"8	c #1580B2",
"9	c #238FBF",
"0	c #2F9AC9",
"a	c #2B97C6",
"b	c #1783B5",
"c	c #1B85B8",
"d	c #2591C1",
"e	c #1B86B9",
"f	c #1A84B8",
"g	c #218CBE",
"h	c #1C87BA",
"i	c #1F8ABB",
"j	c #1B87B9",
"k	c #228DBE",
"l	c #2390C1",
"m	c #2490C0",
"n	c #2692C1",
"o	c #2895C3",
"p	c #FFFFFF",
"q	c #0F78AD",
"r	c #2C98C6",
"s	c #2996C5",
"t	c #0C74A9",
"u	c #2E9AC8",
"v	c #0D74AA",
"w	c #0A70A7",
"x	c #0A70A8",
"y	c #0B71A8",
"z	c #096FA5",
"A	c #096EA6",
"B	c #096FA6",
"C	c #0F79AD",
"D	c #086DA4",
"E	c #36A3CE",
"F	c #096EA5",
"                            ",
"                            ",
"                            ",
"                            ",
"    .   +@#$%%&*=-;  .      ",
">>>,'>>)*!~~~~~~{$]+''>>>>>>",
"^^^//(_&::{:::{:{:<[-}(^^^^^",
"||||-=1!%%!%%!%!%!%%23-|||||",
"444567&&&&8&1&1&&&&&&9044444",
"@@@a[$$$$$$$$$bb$$$$$c_@@@@@",
"===defcccccccccccccfffg=====",
"999ghhhhhhhhhhhhhhhhhh299999",
"2222[[[[222222[[222i[[[22222",
"jjj*kgkkkkkkkkkkkkkkkk#jjjjj",
"$$$hllmlllllllmlllllllk$$$$$",
"%%%f===n===========n==g%%%%%",
":::&_o]]ppppppppppp]]]h:::::",
"qqq{9@@rpppppppppppr@s8qqqqq",
"tttt&@00uuuuuuuuuuuu0[vttttt",
"wwwxyj33333333333333=qywwwww",
"zzzABw23||-------|-_Czzzzzzz",
"DDDDDDBba(EEE(EEE3#vDDDDDDDD",
"DDDDDDDDv7du||3]2:FDDDDDDDDD",
"zzzzzzzzzzzzzzzzzzzzzzzzzzzz",
"zzzzzzzzzzzzzzzzzzzzzzzzzzzz",
"zzzzzzzzzzzzzzzzzzzzzzzzzzzz",
"zzzzzzzzzzzzzzzzzzzzzzzzzzzz",
"zzzzzzzzzzzzzzzzzzzzzzzzzzzz"};
