/* XPM */
static char * maximize_active_xpm[] = {
"28 28 71 1",
" 	c #3FAAD4",
".	c #3FA9D4",
"+	c #38A5D0",
"@	c #2B98C6",
"#	c #208CBE",
"$	c #1883B5",
"%	c #147EB2",
"&	c #1680B3",
"*	c #1D89BB",
"=	c #2592C2",
"-	c #339FCC",
";	c #3EA8D3",
">	c #3BA7D2",
",	c #3CA6D2",
"'	c #3BA6D1",
")	c #309DC9",
"!	c #147CB2",
"~	c #1079AE",
"{	c #127AAF",
"]	c #2895C4",
"^	c #37A4CF",
"/	c #38A3CF",
"(	c #37A3CF",
"_	c #2793C3",
":	c #127BAF",
"<	c #147CB0",
"[	c #1F8BBC",
"}	c #38A4CF",
"|	c #349FCC",
"1	c #167FB3",
"2	c #1E8ABC",
"3	c #319DCA",
"4	c #309CC9",
"5	c #2F9CC9",
"6	c #2A96C4",
"7	c #1985B7",
"8	c #FFFFFF",
"9	c #238FBF",
"0	c #2F9AC9",
"a	c #2B97C6",
"b	c #1B85B8",
"c	c #2591C1",
"d	c #1B86B9",
"e	c #1A84B8",
"f	c #218CBE",
"g	c #1C87BA",
"h	c #1F8ABB",
"i	c #1B87B9",
"j	c #228DBE",
"k	c #2390C1",
"l	c #2490C0",
"m	c #2692C1",
"n	c #2895C3",
"o	c #0F78AD",
"p	c #2C98C6",
"q	c #2996C5",
"r	c #1580B2",
"s	c #0C74A9",
"t	c #2E9AC8",
"u	c #0D74AA",
"v	c #0A70A7",
"w	c #0A70A8",
"x	c #0B71A8",
"y	c #096FA5",
"z	c #096EA6",
"A	c #096FA6",
"B	c #0F79AD",
"C	c #086DA4",
"D	c #1783B5",
"E	c #36A3CE",
"F	c #096EA5",
"                            ",
"                            ",
"                            ",
"                            ",
"    .   +@#$%%&*=-;  .      ",
">>>,'>>)*!~~~~~~{$]+''>>>>>>",
"^^^//(_&::{:::{:{:<[-}(^^^^^",
"||||-=1!%%!%%!%!%!%%23-|||||",
"444567&&88888888888&&9044444",
"@@@a[$$$88888888888$$b_@@@@@",
"===cdebb88888888888eeef=====",
"999fgggg8ggggggggg8ggg299999",
"2222[[[[822222[[228h[[[22222",
"iii*jfjj8jjjjjjjjj8jjj#iiiii",
"$$$gkklk8kkkkklkkk8kkkj$$$$$",
"%%%e===m8=========8m==f%%%%%",
":::&_n]]8]]]]]]]]]8]]]g:::::",
"ooo{9@@p8ppppp@@pp8p@qrooooo",
"ssss&@0088888888888t0[usssss",
"vvvwxi33333333333333=oxvvvvv",
"yyyzAv23||-------|-_Byyyyyyy",
"CCCCCCADa(EEE(EEE3#uCCCCCCCC",
"CCCCCCCCu7ct||3]2:FCCCCCCCCC",
"yyyCCCCCCCCCCCCCCCCCCCCCyyyy",
"yyyCCCCCCCCCCCCCCCCCCCCCyyyy",
"yyyCCCCCCCCCCCCCCCCCCCCCyyyy",
"yyyCCCCCCCCCCCCCCCCCCCCCyyyy",
"yyyCCCCCCCCCCCCCCCCCCCCCyyyy"};
