/* XPM */
static char * shade_active_xpm[] = {
"28 28 79 1",
" 	c #47B1DB",
".	c #45B0D9",
"+	c #41ADD7",
"@	c #42ADD6",
"#	c #3FA9D4",
"$	c #3FAAD4",
"%	c #38A5D0",
"&	c #2B98C6",
"*	c #208CBE",
"=	c #1883B5",
"-	c #147EB2",
";	c #1680B3",
">	c #1D89BB",
",	c #2592C2",
"'	c #339FCC",
")	c #3EA8D3",
"!	c #3BA6D1",
"~	c #3CA6D2",
"{	c #3BA7D2",
"]	c #309DC9",
"^	c #147CB2",
"/	c #1079AE",
"(	c #127AAF",
"_	c #2895C4",
":	c #37A3CF",
"<	c #38A3CF",
"[	c #2793C3",
"}	c #127BAF",
"|	c #147CB0",
"1	c #1F8BBC",
"2	c #38A4CF",
"3	c #37A4CF",
"4	c #349FCC",
"5	c #167FB3",
"6	c #1E8ABC",
"7	c #319DCA",
"8	c #2F9CC9",
"9	c #2A96C4",
"0	c #1985B7",
"a	c #1580B2",
"b	c #238FBF",
"c	c #2F9AC9",
"d	c #309CC9",
"e	c #2B97C6",
"f	c #FFFFFF",
"g	c #1783B5",
"h	c #1B85B8",
"i	c #2692C3",
"j	c #2591C1",
"k	c #1B86B9",
"l	c #1A84B8",
"m	c #218CBE",
"n	c #2390C0",
"o	c #1C87BA",
"p	c #1F8ABB",
"q	c #1B87B9",
"r	c #228DBE",
"s	c #2390C1",
"t	c #2490C0",
"u	c #157FB2",
"v	c #2692C1",
"w	c #2895C3",
"x	c #0F78AC",
"y	c #0F78AD",
"z	c #2C98C6",
"A	c #2996C5",
"B	c #0D74AA",
"C	c #0C74A9",
"D	c #2E9AC8",
"E	c #0A70A7",
"F	c #0A70A8",
"G	c #0B71A8",
"H	c #096EA6",
"I	c #096FA6",
"J	c #0F79AD",
"K	c #096FA5",
"L	c #086DA4",
"M	c #36A3CE",
"N	c #096EA5",
"                            ",
"                            ",
"............................",
"+@+@@+@++@+@@+@++@+@+@+@@+@+",
"#$#$#$$$%&*=--;>,')$$#$$$#$#",
"!~!~!{{]>^//////(=_%!!{{~!~!",
":<:<<:[;}}(}}}(}(}|1'2:3<:<:",
"4444',5^--^--^-^-^--67'44444",
"888890;;;;a;5;5;;;;;;bcd8888",
"e&ee1========fgg=====h[&&e&e",
"i[ijklhhhhhhfffhhhhlllm,[i[i",
"bnbmoooooooffoffoooooo6bnbnb",
"1616111166ff661ff66p11166161",
"kqk>rmrrrffrrrrrffrrrr*qqkqk",
"=g=osstssfffffffffssssr=g=g=",
"u-ul,,,v,,,,,,,,,,,v,,m--u-u",
"}}};[w___fffffffff____o}}}}}",
"xyx(b&&zzfffffffffzz&Aayyxyx",
"BCBC;&ccDDDDDDDDDDDDc1BCCBCB",
"EFEFGq77777777777777,yGEFEFE",
"HHHHIE6744'''''''4'[JKKKHHHH",
"LLLLLLIge:MMM:MMM7*BLLLLLLLL",
"LLLLLLLLB0jD447_6}NLLLLLLLLL",
"LLLLLLLLLLLLLLLLLLLLLLLLLLLL",
"LLLLLLLLLLLLLLLLLLLLLLLLLLLL",
"LLLLLLLLLLLLLLLLLLLLLLLLLLLL",
"LLLLLLLLLLLLLLLLLLLLLLLLLLLL",
"LLLLLLLLLLLLLLLLLLLLLLLLLLLL"};
