/* XPM */
static char * stick_inactive_xpm[] = {
"28 28 22 1",
" 	c #5F5F5F",
".	c #5C5C5C",
"+	c #525252",
"@	c #4B4B4B",
"#	c #444444",
"$	c #414141",
"%	c #484848",
"&	c #4E4E4E",
"*	c #585858",
"=	c #5E5E5E",
"-	c #565656",
";	c #3F3F3F",
">	c #505050",
",	c #595959",
"'	c #434343",
")	c #474747",
"!	c #4C4C4C",
"~	c #535353",
"{	c #8F8F8F",
"]	c #3C3C3C",
"^	c #3E3E3E",
"/	c #3A3A3A",
"                            ",
"                            ",
"                            ",
"                            ",
"        .+@#$$$%&*=         ",
"=======-%$;;;;;;;#>.========",
"...,,,&'$$;$$$;$;$$@*.,.....",
"*****&'$$$$$$$$$$$$$@-******",
"----+)'''''''''''''''!~-----",
"++++@################)&+++++",
"&&&&))))))))){))){))))@&&&&&",
"!!!@%%%%%%%%%{{{{{%%%%@!!!!!",
"@@@@@@@@{{{{{{{{{{@@@@@@@@@@",
"%%%%!@!{!&&&&{&&{{!!!!@%%%%%",
"###%!!!!{{{{{{!&{{!!!!!#####",
"$$$)&&&&&&&&&{{{{{&&&&@$$$$$",
"$$$'&>>>>>>>>{>>>{>>>>%$$$$$",
";;;;!+++++++++++++++++';;;;;",
"]]]]'+~~~~~~~~~~~~~~~@^]]]]]",
"]]]]]%--------------&;]]]]]]",
"/////]@-***********&;///////",
"///////#+,,,,,,,,-@^////////",
"////////^)&~***>@$//////////",
"////////////////////////////",
"////////////////////////////",
"////////////////////////////",
"////////////////////////////",
"////////////////////////////"};
