/* XPM */
static char *close_prelight[] = {
/* columns rows colors chars-per-pixel */
"28 28 73 1 ",
"  c #0F53CF",
". c #0F53D0",
"X c #0F53D1",
"o c #0F53D2",
"O c #0F55D6",
"+ c #0F55D7",
"@ c #0F56D9",
"# c #114DBE",
"$ c #114EBD",
"% c #134093",
"& c #134094",
"* c #13439D",
"= c #1345A4",
"- c #1345A5",
"; c #1346A6",
": c #1346A7",
"> c #143F90",
", c #143F92",
"< c #144090",
"1 c #144297",
"2 c #153572",
"3 c #153672",
"4 c #153E8B",
"5 c #16356F",
"6 c #163570",
"7 c #163571",
"8 c #163572",
"9 c #172E58",
"0 c #172E5A",
"q c #182E5B",
"w c #182F5D",
"e c #192235",
"r c #1A2233",
"t c #1A2336",
"y c #1A2337",
"u c #1A2338",
"i c #1A2439",
"p c #1A243A",
"a c #1B1D24",
"s c #4179E1",
"d c #447BE1",
"f c #467CE2",
"g c #487EE2",
"h c #497FE2",
"j c #4A80E2",
"k c #4B80E3",
"l c #4D82E3",
"z c #4E82E3",
"x c #4F83E3",
"c c #5084E3",
"v c #5285E4",
"b c #5486E4",
"n c #5789E4",
"m c #5C8CE5",
"M c #6290E6",
"N c #A8C2F1",
"B c #C5D6F6",
"V c #C6D7F6",
"C c #C7D7F6",
"Z c #C7D8F6",
"A c #C9D9F7",
"S c #F1F5FD",
"D c #F2F6FD",
"F c #F3F6FD",
"G c #F4F7FD",
"H c #F5F8FD",
"J c #F6F8FE",
"K c #F7F9FE",
"L c #F7FAFE",
"P c #F8FAFE",
"I c #FAFCFE",
"U c #FCFDFF",
"Y c white",
/* pixels */
"@@@@@@@@@@@@@@@@@@@@@@@@@@@@",
"@@@@@@@@@@@@@@@@@@@@@@@@@@@@",
"aaaaaaaaaaaaaaaaaaaaaaaaaaaa",
"aaaaaaaaap3:#oo#:7iaaaaaaaaa",
"aaaaaaay<O@@@@@@@@+*paaaaaaa",
"aaaaaawX@@@@@@@@@@@@.qaaaaaa",
"aaaaa8+@@@@@@@@@@@@@@+2aaaaa",
"aaaaw+@@@@@@@@@@@@@@@@+qaaaa",
"aaauX@@@@@@@@@@@@@@@@@@.taaa",
"aaa&@@@@@@@@@@@@@@@@@@@@,aaa",
"aapO@@@@@NVf@@@@sBN@@@@@Ouaa",
"aa3@@@@@@ZYGg@@dSYA@@@@@@6aa",
"aa;@@@@@@cPYGgfDYIn@@@@@@=aa",
"aa#@@@@@@@bPYGFYIm@@@@@@@#aa",
"aaX@@@@@@@@vLYYUM@@@@@@@@Xaa",
"aa.@@@@@@@@gGYYKz@@@@@@@@.aa",
"aa#@@@@@@@jHYKJYJz@@@@@@@#aa",
"aa;@@@@@@hHYKxlJYJj@@@@@@=aa",
"aa7@@@@@@VYKx@@lJYV@@@@@@5aa",
"aaiO@@@@@NCk@@@@jCN@@@@@+uaa",
"aaa%@@@@@@@@@@@@@@@@@@@@>aaa",
"aaay.@@@@@@@@@@@@@@@@@@ eaaa",
"aaaa9O@@@@@@@@@@@@@@@@+qaaaa",
"aaaaa2+@@@@@@@@@@@@@@+3aaaaa",
"aaaaaaq.@@@@@@@@@@@@ 0aaaaaa",
"aaaaaaar4+@@@@@@@@+1eaaaaaaa",
"aaaaaaaaau6-$XX$=5uaaaaaaaaa",
"aaaaaaaaaaaaaaaaaaaaaaaaaaaa"
};
