/* XPM */
static char *close_active[] = {
/* columns rows colors chars-per-pixel */
"28 28 61 1 ",
"  c #0F53CF",
". c #0F53D1",
"X c #0F56D9",
"o c #104FC2",
"O c #1050C8",
"+ c #1051C9",
"@ c #1054D4",
"# c #114CBA",
"$ c #114DBA",
"% c #114DBE",
"& c #114EBD",
"* c #114EBF",
"= c #114EC0",
"- c #114FC1",
"; c #13429A",
": c #143B86",
"> c #143C86",
", c #143C87",
"< c #144199",
"1 c #153C85",
"2 c #16336B",
"3 c #16336C",
"4 c #172F5F",
"5 c #17305E",
"6 c #17305F",
"7 c #173060",
"8 c #173061",
"9 c #173062",
"0 c #182F5C",
"q c #182F5D",
"w c #1A1E27",
"e c #1A1E28",
"r c #1B1D24",
"t c #1B1E26",
"y c #1B1E27",
"u c #2062DC",
"i c #2263DC",
"p c #2364DC",
"a c #2465DC",
"s c #2565DC",
"d c #2666DD",
"f c #2767DD",
"g c #2969DD",
"h c #2D6BDE",
"j c #2F6DDE",
"k c #C3D5F5",
"l c #C7D8F6",
"z c #D0DEF8",
"x c #D2DFF8",
"c c #D4E1F8",
"v c #D5E1F8",
"b c #D6E2F8",
"n c #D7E2F9",
"m c #D8E4F9",
"M c #D9E4F9",
"N c #DBE6F9",
"B c #DDE7FA",
"V c #E1EAFA",
"C c #E3EBFB",
"Z c #FEFEFF",
"A c white",
/* pixels */
"XXXXXXXXXXXXXXXXXXXXXXXXXXXX",
"XXXXXXXXXXXXXXXXXXXXXXXXXXXX",
"rrrrrrrrrrrrrrrrrrrrrrrrrrrr",
"rrrrrrrrrrrrrrrrrrrrrrrrrrrr",
"rrrrrrrrrrrrrrrrrrrrrrrrrrrr",
"rrrrrrrrre3$@XX@#2errrrrrrrr",
"rrrrrrrr6+XXXXXXXXO5rrrrrrrr",
"rrrrrry,XXXXXXXXXXXX>trrrrrr",
"rrrrrr,XXXXXXXXXXXXXX:rrrrrr",
"rrrrr6XXXXXXXXXXXXXXXXqrrrrr",
"rrrre=XXXXXXXXXXXXXXXXoerrrr",
"rrrr9XXXXXZlpXXukAXXXXX7rrrr",
"rrrr;XXXXXbAbpixAMXXXXX<rrrr",
"rrrr%XXXXXgBAbcAVhXXXXX%rrrr",
"rrrr.XXXXXXdmAACjXXXXXX.rrrr",
"rrrr.XXXXXXavAANfXXXXXX rrrr",
"rrrr%XXXXXsnAMMAMdXXXXX%rrrr",
"rrrr;XXXXXzAMddMAxXXXXX<rrrr",
"rrrr8XXXXXZxdXXdxAXXXXX4rrrr",
"rrrrw*XXXXXXXXXXXXXXXX-errrr",
"rrrrr5XXXXXXXXXXXXXXXX0rrrrr",
"rrrrrr>XXXXXXXXXXXXXX1rrrrrr",
"rrrrrrt>XXXXXXXXXXXX:trrrrrr",
"rrrrrrrrq*XXXXXXXX*0rrrrrrrr",
"rrrrrrrrrw7<&..&<4wrrrrrrrrr",
"rrrrrrrrrrrrrrrrrrrrrrrrrrrr",
"rrrrrrrrrrrrrrrrrrrrrrrrrrrr",
"rrrrrrrrrrrrrrrrrrrrrrrrrrrr"
};
