/* XPM */
static char *close_inactive[] = {
/* columns rows colors chars-per-pixel */
"28 28 51 1 ",
"  c #1B1D24",
". c #1B1D25",
"X c #1D1F26",
"o c #1E2027",
"O c #1F2128",
"+ c #202229",
"@ c #20222A",
"# c #23252C",
"$ c #24252D",
"% c #24262C",
"& c #24262D",
"* c #25272E",
"= c #25272F",
"- c #25282F",
"; c #2F3037",
": c #2F3137",
"> c #2F3239",
", c #303138",
"< c #303239",
"1 c #303339",
"2 c #3C3F45",
"3 c #3D3F45",
"4 c #3D3F46",
"5 c #41434A",
"6 c #43464D",
"7 c #44454D",
"8 c #44464D",
"9 c #484A51",
"0 c #484B52",
"q c #4D4F56",
"w c #4D4F57",
"e c #4E5057",
"r c #4E5157",
"t c #4F5158",
"y c #50525A",
"u c #51525A",
"i c #51535A",
"p c #52535B",
"a c #52545B",
"s c #52555B",
"d c #53555C",
"f c #53565C",
"g c #54565D",
"h c #56585F",
"j c #57585F",
"k c #57595F",
"l c #575960",
"z c #585A60",
"x c #595A61",
"c c #5A5B63",
"v c #5A5C64",
/* pixels */
"                            ",
"                            ",
"                            ",
"                            ",
"                            ",
"         X18izzi7<X         ",
"        ,pvvvvvvvvp:        ",
"      .4vvvvvvvvvvvv4.      ",
"      4vvvvvvvvvvvvvv4      ",
"     ,vvvvvvvvvvvvvvvv:     ",
"    Xpvvvd5avvvvs5dvvviX    ",
"    1vvvv0 +rvvt@ 0vvvv<    ",
"    8vvvvh& +rr+ %hvvvv7    ",
"    ivvvvvf& ++ %svvvvvi    ",
"    lvvvvvvf$  #svvvvvvl    ",
"    lvvvvvve+  oqvvvvvvk    ",
"    ivvvvvwO ** oqvvvvvi    ",
"    7vvvvdO =gg= odvvvv6    ",
"    <vvvv9 -gvvg- 9vvvv>    ",
"    XpvvvjrxvvvvxrjvvviX    ",
"     :vvvvvvvvvvvvvvvc;     ",
"      4vvvvvvvvvvvvvv2      ",
"      .4vvvvvvvvvvvc3.      ",
"        :ivvvvvvvvi;        ",
"         X<7uzzy6>X         ",
"                            ",
"                            ",
"                            "
};
