/* XPM */
static char *label-active[] = {
/* columns rows colors chars-per-pixel */
"28 28 2 1 ",
"  c #0f56d9",
". c #1B1D24",
/* pixels */
"                            ",
"                            ",
"............................",
"............................",
"............................",
"............................",
"............................",
"............................",
"............................",
"............................",
"............................",
"............................",
"............................",
"............................",
"............................",
"............................",
"............................",
"............................",
"............................",
"............................",
"............................",
"............................",
"............................",
"............................",
"............................",
"............................",
"............................",
"............................"
};
