/* XPM */
static char *maximize_toggled_prelight[] = {
/* columns rows colors chars-per-pixel */
"28 28 52 1 ",
"  c #0F56D9",
". c #1B1D23",
"X c #1B1D24",
"o c #1C1D24",
"O c #1E2128",
"+ c #1F2128",
"@ c #1F2227",
"# c #1F2228",
"$ c #1F2229",
"% c #202228",
"& c #202229",
"* c #262931",
"= c #262A31",
"- c #262A32",
"; c #272B31",
": c #272B32",
"> c #2B2F37",
", c #2B3037",
"< c #2C2F36",
"1 c #2C2F37",
"2 c #2C2F38",
"3 c #2C3037",
"4 c #31363E",
"5 c #32373F",
"6 c #33373F",
"7 c #33383F",
"8 c #333840",
"9 c #333942",
"0 c #343841",
"q c #353A41",
"w c #363C44",
"e c #373D44",
"r c #373D45",
"t c #3C424A",
"y c #3C424B",
"u c #3D434C",
"i c #3F474F",
"p c #3F4750",
"a c #404650",
"s c #404750",
"d c #414851",
"f c #424850",
"g c #424851",
"h c #424852",
"j c #424951",
"k c #424952",
"l c #727983",
"z c #767C87",
"x c #797F8B",
"c c #898F9B",
"v c #A8AEBC",
"b c #A9AFBD",
/* pixels */
"                            ",
"                            ",
"XXXXXXXXX...........XXXXXXXX",
"XXXXXXXo.%1ryssyr<%..XXXXXXX",
"XXXXXX.#6fjjjjjjjjgq&..XXXXX",
"XXXXXX;ajjjjjjjjjjjji;.oXXXX",
"XXXXX3gjjjjjjjjjjjjjjg1.XXXX",
"XXXX;gjjjjjjjjjjjjjjjjg;.XXX",
"XXX$ajjjjjjjjjjjjjjjjjji@XXX",
"XXX0jjjjjjjjjjxjjjjjjjjj7oXX",
"XX&fjjjjjjjjjjbxjjjjjjjjf#XX",
"XX2kjjjjjjjjjjbbxjjjjjjjj3XX",
"XXrkjjjjjjjjjjbbbxjjjjjjjwXX",
"XXukjjjjjjjjjjvbbbzjjjjjjyXX",
"XXajjjjjjjjjjjcbbbbzjjjjjaXX",
"XXakjjjjzbbbbcjjjjjjjjjjjsXX",
"XXykjjjjjzbbbvjjjjjjjjjjjtXX",
"XXrkjjjjjjlbbbjjjjjjjjjjjwXX",
"XX1kkjjjjjjlbbjjjjjjjjjjk>XX",
"XX&gkkjjjjjjlbjjjjjjjjjkd$XX",
"XXX8kkjjjjjjjzjjjjjjjjjk5XXX",
"XXX$pkkkjjjjjjjjjjjjjkkp+XXX",
"XXXX*gkkkjjjjjjjjjjjkkh-XXXX",
"XXXXX2hkkkkkjkkkjkkkkh2XXXXX",
"XXXXXX:pkkkkkkkkkkkkp=XXXXXX",
"XXXXXXXO4dkkkkkkkkh9+XXXXXXX",
"XXXXXXXXX$,etaatw>$XXXXXXXXX",
"XXXXXXXXXXXXXXXXXXXXXXXXXXXX"
};
