/* XPM */
static char *maximize_active[] = {
/* columns rows colors chars-per-pixel */
"28 28 3 1 ",
"  c #0F56D9",
". c #1B1D24",
"# c #cacdd0",
/* pixels */
"                            ",
"                            ",
"............................",
"............................",
"............................",
"............................",
"............................",
"............................",
"............................",
"............................",
"............................",
"............######..........",
".............#####..........",
"..........#...####..........",
"..........##...###..........",
"..........###...##..........",
"..........####...#..........",
"..........#####.............",
"..........######............",
"............................",
"............................",
"............................",
"............................",
"............................",
"............................",
"............................",
"............................",
"............................"
};
