/* XPM */
static char *maximize_inactive[] = {
/* columns rows colors chars-per-pixel */
"28 28 11 1 ",
"  c #1B1D24",
". c #25262E",
"X c #262830",
"o c #272930",
"O c #272A31",
"+ c #494A52",
"@ c #55565E",
"# c #55565F",
"$ c #555760",
"% c #565860",
"& c #5A5C64",
/* pixels */
"                            ",
"                            ",
"                            ",
"                            ",
"                            ",
"                            ",
"                            ",
"                            ",
"                            ",
"                            ",
"                            ",
"            X#&&&+          ",
"             X#&&&          ",
"          o   X#&&          ",
"          %O   .@&          ",
"          &%O   .@          ",
"          &&$o   X          ",
"          &&&$o             ",
"          +&&&$o            ",
"                            ",
"                            ",
"                            ",
"                            ",
"                            ",
"                            ",
"                            ",
"                            ",
"                            "
};
