/* XPM */
static char *maximize_toggled_inactive[] = {
/* columns rows colors chars-per-pixel */
"28 28 6 1 ",
"  c #1B1D24",
". c #3B3C40",
"X c #3D3E42",
"o c #404144",
"O c #4A4B4D",
"+ c #606060",
/* pixels */
"                            ",
"                            ",
"                            ",
"                            ",
"                            ",
"                            ",
"                            ",
"                            ",
"                            ",
"              o             ",
"              +o            ",
"              ++o           ",
"              +++o          ",
"              ++++X         ",
"              O++++X        ",
"        X++++O              ",
"         X++++              ",
"          .+++              ",
"           .++              ",
"            .+              ",
"             X              ",
"                            ",
"                            ",
"                            ",
"                            ",
"                            ",
"                            ",
"                            "
};
