/* XPM */
static char *maximize_toggled_active[] = {
/* columns rows colors chars-per-pixel */
"28 28 8 1 ",
"  c #0F56D9",
". c #1B1D24",
"X c #5D616B",
"o c #626671",
"O c #676B76",
"+ c #7C818D",
"@ c #A8AEBC",
"# c #A9AFBD",
/* pixels */
"                            ",
"                            ",
"............................",
"............................",
"............................",
"............................",
"............................",
"............................",
"............................",
"..............O.............",
"..............#O............",
"..............##O...........",
"..............###O..........",
"..............@###o.........",
"..............+####o........",
"........o####+..............",
".........o###@..............",
"..........X###..............",
"...........X##..............",
"............X#..............",
".............o..............",
"............................",
"............................",
"............................",
"............................",
"............................",
"............................",
"............................"
};
