/* XPM */
static char *stick_inactive[] = {
/* columns rows colors chars-per-pixel */
"28 28 3 1 ",
"  c #1B1D24",
". c #1B1D24",
"X c #5A5C64",
/* pixels */
"                            ",
"                            ",
"............................",
"............................",
"............................",
"............................",
"............................",
"............................",
"............................",
"............................",
".............XX.............",
".............XX.............",
".............XX.............",
"..........XXXXXXXX..........",
"..........XXXXXXXX..........",
".............XX.............",
".............XX.............",
".............XX.............",
"............................",
"............................",
"............................",
"............................",
"............................",
"............................",
"............................",
"............................",
"............................",
"............................"
};
