/* XPM */
static char *stick_toggled_pressed[] = {
/* columns rows colors chars-per-pixel */
"28 28 14 1 ",
"  c #0F53CF",
". c #0F53D0",
"X c #0F56D9",
"o c #1052CC",
"O c #1052CD",
"+ c #1053CE",
"@ c #1244A0",
"# c #13439C",
"$ c #13439D",
"% c #13439E",
"& c #19263F",
"* c #1A2338",
"= c #1A2439",
"- c #1B1D24",
/* pixels */
"XXXXXXXXXXXXXXXXXXXXXXXXXXXX",
"XXXXXXXXXXXXXXXXXXXXXXXXXXXX",
"----------------------------",
"----------------------------",
"----------------------------",
"----------------------------",
"----------------------------",
"----------------------------",
"----------------------------",
"----------------------------",
"-----------=%..@&-----------",
"----------=OXXXXO=----------",
"----------%XXXXXX$----------",
"----------.XXXXXX ----------",
"----------.XXXXXX+----------",
"----------@XXXXXX#----------",
"----------&OXXXXo*----------",
"-----------=$  #*-----------",
"----------------------------",
"----------------------------",
"----------------------------",
"----------------------------",
"----------------------------",
"----------------------------",
"----------------------------",
"----------------------------",
"----------------------------",
"----------------------------"
};
