/* XPM */
static char *stick_active[] = {
/* columns rows colors chars-per-pixel */
"28 28 3 1 ",
"  c #0F56D9",
". c #1B1D24",
"X c #cacdd0",
/* pixels */
"                            ",
"                            ",
"............................",
"............................",
"............................",
"............................",
"............................",
"............................",
"............................",
"............................",
".............XX.............",
".............XX.............",
".............XX.............",
"..........XXXXXXXX..........",
"..........XXXXXXXX..........",
".............XX.............",
".............XX.............",
".............XX.............",
"............................",
"............................",
"............................",
"............................",
"............................",
"............................",
"............................",
"............................",
"............................",
"............................"
};
