/* XPM */
static char * bullet_pfeil_0f56d9_xpm[] = {
"16 16 2 1",
" 	c None",
".	c #0f56d9",
"                ",
"                ",
"      ...       ",
"       ...      ",
"        ...     ",
"         ...    ",
"          ...   ",
"           ...  ",
"           ...  ",
"          ...   ",
"         ...    ",
"        ...     ",
"       ...      ",
"      ...       ",
"                ",
"                "};
