/* XPM */
static char * bullet_xpm[] = {
"16 16 47 1",
" 	c #0F54D0",
".	c #0F54D1",
"+	c #0F54D2",
"@	c #0F55D7",
"#	c #0F56D7",
"$	c #0F56D8",
"%	c #0F56D9",
"&	c #1053CE",
"*	c #1053CF",
"=	c #114EBE",
"-	c #114FBF",
";	c #124EBD",
">	c #1347A4",
",	c #1347A5",
"'	c #1348A6",
")	c #1348A7",
"!	c #144291",
"~	c #144294",
"{	c #144393",
"]	c #14459D",
"^	c #154190",
"/	c #154290",
"(	c #154497",
"_	c #16408B",
":	c #17386F",
"<	c #173870",
"[	c #173871",
"}	c #173972",
"|	c #183259",
"1	c #19325B",
"2	c #19335D",
"3	c #1B2835",
"4	c #1B2A3A",
"5	c #1C2733",
"6	c #1C2836",
"7	c #1C2837",
"8	c #1C2838",
"9	c #1C2939",
"0	c #1C293A",
"a	c #1D2324",
"b	c #5386E4",
"c	c #5486E4",
"d	c #5688E4",
"e	c #E4ECFB",
"f	c #E5ECFB",
"g	c #E6EDFB",
"h	c #FFFFFF",
"$%%%%%%%%%%%%%%%",
"%%%%%%%%%%%%%%%%",
"%%%%%%%%%%%%%%%%",
"%%%%%%%%%%%%%%%%",
"%%%%%%%%%%%%%%%%",
"%%%%%%%%%%%%%%%%",
"%dgfc%dgfc%dgfc%",
"%fhhe%fhhe%fhhe%",
"%fhhe%fhhe%fhhe%",
"%cfeb%cfeb%cfeb%",
"%%%%%%%%%%%%%%%%",
"%%%%%%%%%%%%%%%%",
"%%%%%%%%%%%%%%%%",
"%%%%%%%%%%%%%%%%",
"%%%%%%%%%%%%%%%%",
"%%%%%%%%%%%%%%%%"};
