/* XPM */
static char * close_inactive_xpm[] = {
"34 36 41 1",
" 	c #424242",
".	c #4B4B4B",
"+	c #646464",
"@	c #7A7A7A",
"#	c #848484",
"$	c #8D8D8D",
"%	c #636363",
"&	c #4A4A4A",
"*	c #707070",
"=	c #8F8F8F",
"-	c #909090",
";	c #767676",
">	c #4C4C4C",
",	c #5A5A5A",
"'	c #8C8C8C",
")	c #5D5D5D",
"!	c #4E4E4E",
"~	c #454545",
"{	c #757575",
"]	c #777777",
"^	c #4D4D4D",
"/	c #656565",
"(	c #666666",
"_	c #595959",
":	c #727272",
"<	c #717171",
"[	c #606060",
"}	c #434343",
"|	c #626262",
"1	c #797979",
"2	c #858585",
"3	c #464646",
"4	c #737373",
"5	c #4F4F4F",
"6	c #838383",
"7	c #5E5E5E",
"8	c #8E8E8E",
"9	c #787878",
"0	c #676767",
"a	c #494949",
"b	c #6E6E6E",
"                                  ",
"                                  ",
"                                  ",
"                                  ",
"                                  ",
"                                  ",
"            .+@#$$#@%&            ",
"          &*=---------;>          ",
"         ,'-=;)!~~!){=-',         ",
"        +--]>        ^]--+        ",
"       ,-=/            (--_       ",
"      .'-+              (-'&      ",
"      :-]                ]-<      ",
"     .==>                ^==.     ",
"     +-;     [:   }*|     ;-|     ",
"     @-)     :-:  :-:     )-1     ",
"     2-^      :-::-:      !-#     ",
"     '-3      }*--:       3-'     ",
"     '-3      }<--4       3-'     ",
"     2-^      :-::-:      5-6     ",
"     @-7     :-:  :-:     7-1     ",
"     %-{     [:    :[     ]-%     ",
"     &==^                ^8=&     ",
"      :-]               }9-<      ",
"      &'-(              0-'&      ",
"       ,--(           }(--_       ",
"        +--9^        ^]--|        ",
"         ,'-8;)533!)]8-'_         ",
"          ab=---------4&          ",
"            .|@6''61%&            ",
"                                  ",
"                                  ",
"                                  ",
"                                  ",
"                                  ",
"                                  "};
