/* XPM */
static char * close_active_xpm[] = {
"34 34 83 1",
" 	c #1D2324",
".	c #383D3E",
"+	c #7E8182",
"@	c #C0C2C2",
"#	c #DCDDDE",
"$	c #F5F6F6",
"%	c #BFC1C1",
"&	c #7D8081",
"*	c #373C3D",
"=	c #353A3B",
"-	c #A5A7A7",
";	c #FBFCFC",
">	c #FFFFFF",
",	c #FDFDFD",
"'	c #B4B6B6",
")	c #393F3F",
"!	c #646869",
"~	c #F4F5F5",
"{	c #FAFAFA",
"]	c #B2B4B4",
"^	c #6B6F70",
"/	c #404545",
"(	c #272C2D",
"_	c #6C7070",
":	c #B3B5B5",
"<	c #F3F4F4",
"[	c #626667",
"}	c #7F8383",
"|	c #B5B7B7",
"1	c #3A3F40",
"2	c #3C4142",
"3	c #B6B8B9",
"4	c #FCFCFC",
"5	c #838687",
"6	c #858888",
"7	c #616566",
"8	c #363B3C",
"9	c #828586",
"0	c #F3F3F3",
"a	c #34393A",
"b	c #A8AAAB",
"c	c #B7B9B9",
"d	c #A5A8A8",
"e	c #3B4041",
"f	c #3D4243",
"g	c #737777",
"h	c #1F2526",
"i	c #1E2425",
"j	c #A3A5A6",
"k	c #797D7D",
"l	c #7C7F80",
"m	c #A7AAAA",
"n	c #A9ABAC",
"o	c #6E7272",
"p	c #BDBFBF",
"q	c #DFE0E0",
"r	c #282D2E",
"s	c #A4A6A7",
"t	c #AAACAD",
"u	c #292F30",
"v	c #DDDEDE",
"w	c #3F4445",
"x	c #404646",
"y	c #DCDCDD",
"z	c #6D7171",
"A	c #6F7273",
"B	c #7B7E7F",
"C	c #3E4344",
"D	c #FBFBFB",
"E	c #BABCBC",
"F	c #878B8B",
"G	c #F2F2F2",
"H	c #333939",
"I	c #868989",
"J	c #868A8A",
"K	c #5F6464",
"L	c #B8BABA",
"M	c #B9BBBB",
"N	c #414647",
"O	c #303536",
"P	c #9EA0A1",
"Q	c #ADAFAF",
"R	c #BEC0C0",
"                                  ",
"                                  ",
"                                  ",
"                                  ",
"                                  ",
"            .+@#$$#%&*            ",
"          =-;>>>>>>>>,')          ",
"         !~>{]^/((/_:{><[         ",
"        },>|1        23>,+        ",
"       !,45            6,,7       ",
"      8~>9              6>0a      ",
"      b>|                c>d      ",
"     .4{e                f{48     ",
"     +>]     gbh  ijk     '>l     ",
"     %>^     m>nhhn>m     o>p     ",
"     q>f     hn>nn>nh     />#     ",
"     ~>r      ij>>nh      r>~     ",
"     ~>r      is>>th      u>0     ",
"     v>w     hn>nn>nh     x>y     ",
"     %>z     m>nhhn>m     A>p     ",
"     &>:     gmh  hmg     |>B     ",
"     *4{2                CD;=     ",
"      m>c               iE>s      ",
"      =<>6              F>GH      ",
"       [,,I           iJ,,K       ",
"        +,>Lf        CM>,l        ",
"         [<>D'oxrrNo|D>GK         ",
"          OP;>>>>>>>>,QH          ",
"            8lRy~~ypB=            ",
"                                  ",
"                                  ",
"                                  ",
"                                  ",
"                                  "};
