/* XPM */
static char * close_prelight_xpm[] = {
"34 34 55 1",
" 	c #1D2324",
".	c #31383D",
"+	c #646F7E",
"@	c #94A4BC",
"#	c #A8B9D6",
"$	c #BBCEED",
"%	c #93A3BB",
"&	c #636E7D",
"*	c #30373C",
"=	c #2F363A",
"-	c #808EA2",
";	c #C0D3F3",
">	c #C2D5F6",
",	c #C0D3F4",
"'	c #8B9AB0",
")	c #313A3E",
"!	c #515B66",
"~	c #BBCDEC",
"{	c #C1D5F6",
"]	c #BACCEB",
"^	c #4F5964",
"/	c #64717F",
"(	c #C2D4F6",
"_	c #4F5863",
":	c #2F363B",
"<	c #B9CBEA",
"[	c #2E3539",
"}	c #8290A5",
"|	c #808FA3",
"1	c #8391A6",
"2	c #5D6875",
"3	c #C1D4F5",
"4	c #606C79",
"5	c #7F8CA1",
"6	c #626D7C",
"7	c #5D6876",
"8	c #5C6774",
"9	c #92A1B9",
"0	c #ABBCD8",
"a	c #BACDEC",
"b	c #5F6B78",
"c	c #5B6673",
"d	c #A9BAD6",
"e	c #A9B9D5",
"f	c #626D7B",
"g	c #8290A4",
"h	c #808DA2",
"i	c #B9CAEB",
"j	c #2D3538",
"k	c #4D5861",
"l	c #B9CAEA",
"m	c #2B3235",
"n	c #7B889C",
"o	c #8694A9",
"p	c #92A2BA",
"                                  ",
"                                  ",
"                                  ",
"                                  ",
"                                  ",
"            .+@#$$#%&*            ",
"          =-;>>>>>>>>,')          ",
"         !~>{>>>>>>>>{>]^         ",
"        /,>>>>>>>>>>>>>>,+        ",
"       !,(>>>>>>>>>>>>>>{,_       ",
"      :~>>>>>>>>>>>>>>>>>><[      ",
"      }>>>>>>>>>>>>>>>>>>>>|      ",
"     .,{>>>>>>>>>>>>>>>>>>{,:     ",
"     +>>>>>>>12,>>345>>>>>>>6     ",
"     %>>>>>>>7 8,,8 7>>>>>>>9     ",
"     0>>>>>>>,8 88 8,>>>>>>>#     ",
"     a>>>>>>>>34  8,>>>>>>>>a     ",
"     a>>>>>>>>3b  c,>>>>>>>><     ",
"     d>>>>>>>,8 88 8,>>>>>>>e     ",
"     %>>>>>>>7 8,,8 7>>>>>>>9     ",
"     &>>>>>>>17,>>,71>>>>>>>f     ",
"     *,{>>>>>>>>>>>>>>>>>>>;=     ",
"      g>>>>>>>>>>>>>>>>>>>>h      ",
"      =]>>>>>>>>>>>>>>>>>>ij      ",
"       ^,{>>>>>>>>>>>>>>{,k       ",
"        +,>>>>>>>>>>>>>>,6        ",
"         ^]>>>>>>>>>>>>lk         ",
"          mn;>>>>>>>>,oj          ",
"            :6peaae9f=            ",
"                                  ",
"                                  ",
"                                  ",
"                                  ",
"                                  "};
