/* XPM */
static char * hide_prelight_xpm[] = {
"34 36 46 1",
" 	c #1D2324",
".	c #31383D",
"+	c #646F7E",
"@	c #94A4BC",
"#	c #A8B9D6",
"$	c #BBCEED",
"%	c #93A3BB",
"&	c #636E7D",
"*	c #30373C",
"=	c #2F363A",
"-	c #808EA2",
";	c #C0D3F3",
">	c #C2D5F6",
",	c #C0D3F4",
"'	c #8B9AB0",
")	c #313A3E",
"!	c #515B66",
"~	c #BBCDEC",
"{	c #C1D5F6",
"]	c #BACCEB",
"^	c #4F5964",
"/	c #64717F",
"(	c #C2D4F6",
"_	c #4F5863",
":	c #2F363B",
"<	c #B9CBEA",
"[	c #2E3539",
"}	c #8290A5",
"|	c #808FA3",
"1	c #626D7C",
"2	c #92A1B9",
"3	c #ABBCD8",
"4	c #BACDEC",
"5	c #A9BAD6",
"6	c #A9B9D5",
"7	c #626D7B",
"8	c #8290A4",
"9	c #808DA2",
"0	c #B9CAEB",
"a	c #2D3538",
"b	c #4D5861",
"c	c #B9CAEA",
"d	c #2B3235",
"e	c #7B889C",
"f	c #8694A9",
"g	c #92A2BA",
"                                  ",
"                                  ",
"                                  ",
"                                  ",
"                                  ",
"            .+@#$$#%&*            ",
"          =-;>>>>>>>>,')          ",
"         !~>{>>>>>>>>{>]^         ",
"        /,>>>>>>>>>>>>>>,+        ",
"       !,(>>>>>>>>>>>>>>{,_       ",
"      :~>>>>>>>>>>>>>>>>>><[      ",
"      }>>>>>>>>>>>>>>>>>>>>|      ",
"     .,{>>>>>>>>>>>>>>>>>>{,:     ",
"     +>>>>>>>>>>>>>>>>>>>>>>1     ",
"     %>>>>>>>>>>>>>>>>>>>>>>2     ",
"     3>>>>>>>>>>>>>>>>>>>>>>#     ",
"     4>>>>>>>>>>>>>>>>>>>>>>4     ",
"     4>>>>>>>>>>>>>>>>>>>>>><     ",
"     5>>>>>>>        >>>>>>>6     ",
"     %>>>>>>>        >>>>>>>2     ",
"     &>>>>>>>>>>>>>>>>>>>>>>7     ",
"     *,{>>>>>>>>>>>>>>>>>>>;=     ",
"      8>>>>>>>>>>>>>>>>>>>>9      ",
"      =]>>>>>>>>>>>>>>>>>>0a      ",
"       ^,{>>>>>>>>>>>>>>{,b       ",
"        +,>>>>>>>>>>>>>>,1        ",
"         ^]>>>>>>>>>>>>cb         ",
"          de;>>>>>>>>,fa          ",
"            :1g644627=            ",
"                                  ",
"                                  ",
"                                  ",
"                                  ",
"                                  ",
"                                  ",
"                                  "};
