/* XPM */
static char * maximize_toggled_inactive_xpm[] = {
"34 36 2 1",
" 	c #424242",
".	c #909090",
"                                  ",
"                                  ",
"                                  ",
"                                  ",
"                                  ",
"                                  ",
"                                  ",
"                                  ",
"                                  ",
"                                  ",
"                                  ",
"                                  ",
"                                  ",
"                                  ",
"             ........             ",
"             ........             ",
"             ..    ..             ",
"             ..    ..             ",
"             ..    ..             ",
"             ..    ..             ",
"             ........             ",
"             ........             ",
"                                  ",
"                                  ",
"                                  ",
"                                  ",
"                                  ",
"                                  ",
"                                  ",
"                                  ",
"                                  ",
"                                  ",
"                                  ",
"                                  ",
"                                  ",
"                                  "};
