/* XPM */
static char * menu_selected_xpm[] = {
"16 16 3 1",
" 	c none",
".	c #FFFFFF",
"+	c #0F56D9",
"                ",
" ++++++++++++++ ",
" ++++++++++++++ ",
" ++++++++++++++ ",
" +++++++++++.++ ",
" ++++++++++..++ ",
" +++++++++..+++ ",
" ++.+++++..++++ ",
" ++..+++..+++++ ",
" +++..+..++++++ ",
" ++++...+++++++ ",
" +++++.++++++++ ",
" ++++++++++++++ ",
" ++++++++++++++ ",
" ++++++++++++++ ",
"                "};
