/* XPM */
static char * shade_active_xpm[] = {
"34 36 16 1",
" 	c #1D2324",
".	c #55595A",
"+	c #525758",
"@	c #F4F5F5",
"#	c #F6F6F6",
"$	c #575C5D",
"%	c #FFFFFF",
"&	c #F5F6F6",
"*	c #A6A9A9",
"=	c #A8AAAB",
"-	c #1F2526",
";	c #1E2425",
">	c #A1A4A4",
",	c #BDBFBF",
"'	c #272C2D",
")	c #818485",
"                                  ",
"                                  ",
"                                  ",
"                                  ",
"                                  ",
"                                  ",
"                                  ",
"                                  ",
"                                  ",
"                                  ",
"                                  ",
"                                  ",
"                                  ",
"                ..                ",
"               +@#$               ",
"              +@%%#$              ",
"             .&%**%&.             ",
"            +@%=-;>%#$            ",
"           +@%=-  ;>%#$           ",
"           ,%*-    -*%,           ",
"           ')-      -)'           ",
"                                  ",
"                                  ",
"                                  ",
"                                  ",
"                                  ",
"                                  ",
"                                  ",
"                                  ",
"                                  ",
"                                  ",
"                                  ",
"                                  ",
"                                  ",
"                                  ",
"                                  "};
