/* XPM */
static char * shade_toggled_active_xpm[] = {
"34 36 16 1",
" 	c #1D2324",
".	c #272C2D",
"+	c #818485",
"@	c #1F2526",
"#	c #BDBFBF",
"$	c #FFFFFF",
"%	c #A6A9A9",
"&	c #525758",
"*	c #F3F4F4",
"=	c #A8AAAB",
"-	c #1E2425",
";	c #A2A4A5",
">	c #F6F6F6",
",	c #575B5C",
"'	c #55595A",
")	c #F5F6F6",
"                                  ",
"                                  ",
"                                  ",
"                                  ",
"                                  ",
"                                  ",
"                                  ",
"                                  ",
"                                  ",
"                                  ",
"                                  ",
"                                  ",
"                                  ",
"                                  ",
"                                  ",
"           .+@      @+.           ",
"           #$%@    @%$#           ",
"           &*$=@  -;$>,           ",
"            &*$=@-;$>,            ",
"             ')$%%$)'             ",
"              &*$$>,              ",
"               &*>,               ",
"                ''                ",
"                                  ",
"                                  ",
"                                  ",
"                                  ",
"                                  ",
"                                  ",
"                                  ",
"                                  ",
"                                  ",
"                                  ",
"                                  ",
"                                  ",
"                                  "};
