/* XPM */
static char * shade_pressed_xpm[] = {
"34 36 55 1",
" 	c #1D2324",
".	c #1C293A",
"+	c #173972",
"@	c #1348A7",
"#	c #114EBE",
"$	c #0F54D2",
"%	c #1348A6",
"&	c #173871",
"*	c #1C2939",
"=	c #1C2837",
"-	c #154290",
";	c #0F56D7",
">	c #0F56D9",
",	c #0F55D7",
"'	c #14459D",
")	c #1B2A3A",
"!	c #19335D",
"~	c #0F54D1",
"{	c #0F54D0",
"]	c #19325B",
"^	c #0F56D8",
"/	c #1C2838",
"(	c #1053CF",
"_	c #1C2836",
":	c #144294",
"<	c #144291",
"[	c #4A80E2",
"}	c #477EE2",
"|	c #F4F7FD",
"1	c #F6F8FE",
"2	c #4D82E3",
"3	c #173870",
"4	c #FFFFFF",
"5	c #1347A4",
"6	c #114FBF",
"7	c #F5F8FD",
"8	c #A1BDF0",
"9	c #A3BEF0",
"0	c #1157D9",
"a	c #1057D9",
"b	c #9BB9EF",
"c	c #B9CEF4",
"d	c #124EBD",
"e	c #195DDB",
"f	c #79A1EA",
"g	c #17386F",
"h	c #144393",
"i	c #154190",
"j	c #1053CE",
"k	c #1B2835",
"l	c #183259",
"m	c #1C2733",
"n	c #16408B",
"o	c #154497",
"p	c #1347A5",
"                                  ",
"                                  ",
"                                  ",
"                                  ",
"                                  ",
"                                  ",
"            .+@#$$#%&*            ",
"          =-;>>>>>>>>,')          ",
"         !~>>>>>>>>>>>>{]         ",
"        +,>>>>>>>>>>>>>>,+        ",
"       !,^>>>>>>>>>>>>>>>,]       ",
"      /~>>>>>>>>>>>>>>>>>>(_      ",
"      :>>>>>>>>>>>>>>>>>>>><      ",
"     .,>>>>>>>>>[[>>>>>>>>>,/     ",
"     +>>>>>>>>>}|12>>>>>>>>>3     ",
"     %>>>>>>>>}|4412>>>>>>>>5     ",
"     6>>>>>>>[748847[>>>>>>>#     ",
"     ~>>>>>>}|490ab412>>>>>>~     ",
"     ~>>>>>}|490>>ab412>>>>>(     ",
"     #>>>>>c480>>>>084c>>>>>d     ",
"     %>>>>>ef0>>>>>>0fe>>>>>5     ",
"     &>>>>>>>>>>>>>>>>>>>>>>g     ",
"     *,>>>>>>>>>>>>>>>>>>>>;=     ",
"      h>>>>>>>>>>>>>>>>>>>>i      ",
"      ={>>>>>>>>>>>>>>>>>>jk      ",
"       ],>>>>>>>>>>>>>>>>,l       ",
"        +,>>>>>>>>>>>>>>,3        ",
"         ]{>>>>>>>>>>>>jl         ",
"          mn;>>>>>>>>,ok          ",
"            /3pd~~d5g=            ",
"                                  ",
"                                  ",
"                                  ",
"                                  ",
"                                  ",
"                                  "};
