/* XPM */
static char * shade_toggled_inactive_xpm[] = {
"34 36 12 1",
" 	c #424242",
".	c #454545",
"+	c #656565",
"@	c #797979",
"#	c #909090",
"$	c #727272",
"%	c #545454",
"&	c #8C8C8C",
"*	c #434343",
"=	c #707070",
"-	c #8D8D8D",
";	c #565656",
"                                  ",
"                                  ",
"                                  ",
"                                  ",
"                                  ",
"                                  ",
"                                  ",
"                                  ",
"                                  ",
"                                  ",
"                                  ",
"                                  ",
"                                  ",
"                                  ",
"                                  ",
"           .+        +.           ",
"           @#$      $#@           ",
"           %&#$   *=#-;           ",
"            %&#$ *=#-;            ",
"             ;-#$$#-;             ",
"              %&##-;              ",
"               %&-;               ",
"                ;;                ",
"                                  ",
"                                  ",
"                                  ",
"                                  ",
"                                  ",
"                                  ",
"                                  ",
"                                  ",
"                                  ",
"                                  ",
"                                  ",
"                                  ",
"                                  "};
