/* XPM */
static char * shade_inactive_xpm[] = {
"34 36 12 1",
" 	c #424242",
".	c #565656",
"+	c #545454",
"@	c #8C8C8C",
"#	c #8D8D8D",
"$	c #909090",
"%	c #727272",
"&	c #434343",
"*	c #6F6F6F",
"=	c #797979",
"-	c #454545",
";	c #656565",
"                                  ",
"                                  ",
"                                  ",
"                                  ",
"                                  ",
"                                  ",
"                                  ",
"                                  ",
"                                  ",
"                                  ",
"                                  ",
"                                  ",
"                                  ",
"                ..                ",
"               +@#.               ",
"              +@$$#.              ",
"             .#$%%$#.             ",
"            +@$% &*$#.            ",
"           +@$%   &*$#.           ",
"           =$%      %$=           ",
"           -;        ;-           ",
"                                  ",
"                                  ",
"                                  ",
"                                  ",
"                                  ",
"                                  ",
"                                  ",
"                                  ",
"                                  ",
"                                  ",
"                                  ",
"                                  ",
"                                  ",
"                                  ",
"                                  "};
