/* XPM */
static char * stick_prelight_xpm[] = {
"34 36 68 1",
" 	c #1D2324",
".	c #31383D",
"+	c #646F7E",
"@	c #94A4BC",
"#	c #A8B9D6",
"$	c #BBCEED",
"%	c #93A3BB",
"&	c #636E7D",
"*	c #30373C",
"=	c #2F363A",
"-	c #808EA2",
";	c #C0D3F3",
">	c #C2D5F6",
",	c #C0D3F4",
"'	c #8B9AB0",
")	c #313A3E",
"!	c #515B66",
"~	c #BBCDEC",
"{	c #C1D5F6",
"]	c #BACCEB",
"^	c #4F5964",
"/	c #64717F",
"(	c #C2D4F6",
"_	c #4F5863",
":	c #2F363B",
"<	c #B9CBEA",
"[	c #2E3539",
"}	c #8290A5",
"|	c #BED0F0",
"1	c #7B889C",
"2	c #414951",
"3	c #242A2D",
"4	c #7B899C",
"5	c #808FA3",
"6	c #B0C2E0",
"7	c #3C444A",
"8	c #3D444B",
"9	c #8C9BB2",
"0	c #B9CCEB",
"a	c #8E9DB4",
"b	c #373F44",
"c	c #626D7C",
"d	c #B6C8E8",
"e	c #B7C9E8",
"f	c #7C8A9D",
"g	c #92A1B9",
"h	c #ABBCD8",
"i	c #404950",
"j	c #424A52",
"k	c #BACDEC",
"l	c #252B2E",
"m	c #262C2F",
"n	c #B9CAEA",
"o	c #A9BAD6",
"p	c #8B99AF",
"q	c #A9B9D5",
"r	c #B6C8E7",
"s	c #BED1F1",
"t	c #626D7B",
"u	c #8290A4",
"v	c #424B53",
"w	c #808DA2",
"x	c #B9CAEB",
"y	c #2D3538",
"z	c #4D5861",
"A	c #2B3235",
"B	c #8694A9",
"C	c #92A2BA",
"                                  ",
"                                  ",
"                                  ",
"                                  ",
"                                  ",
"                                  ",
"            .+@#$$#%&*            ",
"          =-;>>>>>>>>,')          ",
"         !~>{>>>>>>>>{>]^         ",
"        /,>>>>>>>>>>>>>>,+        ",
"       !,(>>>>>>>>>>>>>>{,_       ",
"      :~>>>>>>>>>>>>>>>>>><[      ",
"      }>>>>>>|123324|>>>>>>5      ",
"     .,{>>>>67      86>>>>{,:     ",
"     +>>>>>|7 *900ab 8|>>>>>c     ",
"     %>>>>>1 *d>>>>e* f>>>>>g     ",
"     h>>>>>i 9>>>>>>' j>>>>>#     ",
"     k>>>>>l 0>>>>>>< m>>>>>k     ",
"     k>>>>>l 0>>>>>>n m>>>>><     ",
"     o>>>>>i a>>>>>>p j>>>>>q     ",
"     %>>>>>4 be>>>>r: f>>>>>g     ",
"     &>>>>>|8 *'<<p: 8s>>>>>t     ",
"     *,{>>>>68      86>>>>>;=     ",
"      u>>>>>>sfjllvfs>>>>>>w      ",
"      =]>>>>>>>>>>>>>>>>>>xy      ",
"       ^,{>>>>>>>>>>>>>>{,z       ",
"        +,>>>>>>>>>>>>>>,c        ",
"         ^]>>>>>>>>>>>>nz         ",
"          A1;>>>>>>>>,By          ",
"            :cCqkkqgt=            ",
"                                  ",
"                                  ",
"                                  ",
"                                  ",
"                                  ",
"                                  "};
