/* XPM */
static char * stick_toggled_pressed_xpm[] = {
"34 36 73 1",
" 	c #1D2324",
".	c #1C293A",
"+	c #173972",
"@	c #1348A7",
"#	c #114EBE",
"$	c #0F54D2",
"%	c #1348A6",
"&	c #173871",
"*	c #1C2939",
"=	c #1C2837",
"-	c #154290",
";	c #0F56D7",
">	c #0F56D9",
",	c #0F55D7",
"'	c #14459D",
")	c #1B2A3A",
"!	c #19335D",
"~	c #0F54D1",
"{	c #0F54D0",
"]	c #19325B",
"^	c #0F56D8",
"/	c #1C2838",
"(	c #1053CF",
"_	c #1C2836",
":	c #144294",
"<	c #165BDA",
"[	c #779FE9",
"}	c #CBDBF7",
"|	c #F5F8FD",
"1	c #769EE9",
"2	c #144291",
"3	c #2868DD",
"4	c #D3E0F8",
"5	c #FFFFFF",
"6	c #D2DFF8",
"7	c #E4ECFB",
"8	c #5D8DE5",
"9	c #1B5FDB",
"0	c #5A8BE5",
"a	c #DAE5F9",
"b	c #173870",
"c	c #2062DC",
"d	c #1F61DC",
"e	c #759EE9",
"f	c #1347A4",
"g	c #114FBF",
"h	c #CCDBF7",
"i	c #5688E4",
"j	c #E6EDFB",
"k	c #E5ECFB",
"l	c #5486E4",
"m	c #5F8EE6",
"n	c #CADAF7",
"o	c #F4F7FD",
"p	c #1C5FDB",
"q	c #F3F6FD",
"r	c #1D60DB",
"s	c #5386E4",
"t	c #608FE6",
"u	c #124EBD",
"v	c #2163DC",
"w	c #155ADA",
"x	c #17386F",
"y	c #144393",
"z	c #C9D9F7",
"A	c #154190",
"B	c #1053CE",
"C	c #1B2835",
"D	c #183259",
"E	c #1C2733",
"F	c #16408B",
"G	c #154497",
"H	c #1347A5",
"                                  ",
"                                  ",
"                                  ",
"                                  ",
"                                  ",
"                                  ",
"            .+@#$$#%&*            ",
"          =-;>>>>>>>>,')          ",
"         !~>>>>>>>>>>>>{]         ",
"        +,>>>>>>>>>>>>>>,+        ",
"       !,^>>>>>>>>>>>>>>>,]       ",
"      /~>>>>>>>>>>>>>>>>>>(_      ",
"      :>>>>>><[}||}1<>>>>>>2      ",
"     .,>>>>>3455555563>>>>>,/     ",
"     +>>>>><4578990a56<>>>>>b     ",
"     %>>>>>[57c>>>>d75e>>>>>f     ",
"     g>>>>>h58>ijkl>m5n>>>>>#     ",
"     ~>>>>>o59>k557>p5q>>>>>~     ",
"     ~>>>>>o59>k557>r5q>>>>>(     ",
"     #>>>>>h50>lk7s>t5n>>>>>u     ",
"     %>>>>>15ad>>>>vk5e>>>>>f     ",
"     &>>>>><657mpptk56w>>>>>x     ",
"     *,>>>>>3655555563>>>>>;=     ",
"      y>>>>>>wenoozew>>>>>>A      ",
"      ={>>>>>>>>>>>>>>>>>>BC      ",
"       ],>>>>>>>>>>>>>>>>,D       ",
"        +,>>>>>>>>>>>>>>,b        ",
"         ]{>>>>>>>>>>>>BD         ",
"          EF;>>>>>>>>,GC          ",
"            /bHu~~ufx=            ",
"                                  ",
"                                  ",
"                                  ",
"                                  ",
"                                  ",
"                                  "};
