/* XPM */
static char * stick_pressed_xpm[] = {
"34 36 69 1",
" 	c #1D2324",
".	c #1C293A",
"+	c #173972",
"@	c #1348A7",
"#	c #114EBE",
"$	c #0F54D2",
"%	c #1348A6",
"&	c #173871",
"*	c #1C2939",
"=	c #1C2837",
"-	c #154290",
";	c #0F56D7",
">	c #0F56D9",
",	c #0F55D7",
"'	c #14459D",
")	c #1B2A3A",
"!	c #19335D",
"~	c #0F54D1",
"{	c #0F54D0",
"]	c #19325B",
"^	c #0F56D8",
"/	c #1C2838",
"(	c #1053CF",
"_	c #1C2836",
":	c #144294",
"<	c #165BDA",
"[	c #779FE9",
"}	c #CBDBF7",
"|	c #F5F8FD",
"1	c #769EE9",
"2	c #144291",
"3	c #2868DD",
"4	c #D3E0F8",
"5	c #FFFFFF",
"6	c #D2DFF8",
"7	c #E4ECFB",
"8	c #5D8DE5",
"9	c #1B5FDB",
"0	c #5A8BE5",
"a	c #DAE5F9",
"b	c #173870",
"c	c #2062DC",
"d	c #1F61DC",
"e	c #759EE9",
"f	c #1347A4",
"g	c #114FBF",
"h	c #CCDBF7",
"i	c #5F8EE6",
"j	c #CADAF7",
"k	c #F4F7FD",
"l	c #1C5FDB",
"m	c #F3F6FD",
"n	c #1D60DB",
"o	c #608FE6",
"p	c #124EBD",
"q	c #2163DC",
"r	c #E5ECFB",
"s	c #155ADA",
"t	c #17386F",
"u	c #144393",
"v	c #C9D9F7",
"w	c #154190",
"x	c #1053CE",
"y	c #1B2835",
"z	c #183259",
"A	c #1C2733",
"B	c #16408B",
"C	c #154497",
"D	c #1347A5",
"                                  ",
"                                  ",
"                                  ",
"                                  ",
"                                  ",
"                                  ",
"            .+@#$$#%&*            ",
"          =-;>>>>>>>>,')          ",
"         !~>>>>>>>>>>>>{]         ",
"        +,>>>>>>>>>>>>>>,+        ",
"       !,^>>>>>>>>>>>>>>>,]       ",
"      /~>>>>>>>>>>>>>>>>>>(_      ",
"      :>>>>>><[}||}1<>>>>>>2      ",
"     .,>>>>>3455555563>>>>>,/     ",
"     +>>>>><4578990a56<>>>>>b     ",
"     %>>>>>[57c>>>>d75e>>>>>f     ",
"     g>>>>>h58>>>>>>i5j>>>>>#     ",
"     ~>>>>>k59>>>>>>l5m>>>>>~     ",
"     ~>>>>>k59>>>>>>n5m>>>>>(     ",
"     #>>>>>h50>>>>>>o5j>>>>>p     ",
"     %>>>>>15ad>>>>qr5e>>>>>f     ",
"     &>>>>><657illor56s>>>>>t     ",
"     *,>>>>>3655555563>>>>>;=     ",
"      u>>>>>>sejkkves>>>>>>w      ",
"      ={>>>>>>>>>>>>>>>>>>xy      ",
"       ],>>>>>>>>>>>>>>>>,z       ",
"        +,>>>>>>>>>>>>>>,b        ",
"         ]{>>>>>>>>>>>>xz         ",
"          AB;>>>>>>>>,Cy          ",
"            /bDp~~pft=            ",
"                                  ",
"                                  ",
"                                  ",
"                                  ",
"                                  ",
"                                  "};
