/* XPM */
static char * stick_toggled_inactive_xpm[] = {
"34 36 24 1",
" 	c #424242",
".	c #444444",
"+	c #646464",
"@	c #7F7F7F",
"#	c #8D8D8D",
"$	c #4A4A4A",
"%	c #818181",
"&	c #909090",
"*	c #888888",
"=	c #5C5C5C",
"-	c #464646",
";	c #5A5A5A",
">	c #848484",
",	c #474747",
"'	c #484848",
")	c #636363",
"!	c #808080",
"~	c #595959",
"{	c #878787",
"]	c #585858",
"^	c #7E7E7E",
"/	c #8C8C8C",
"(	c #5D5D5D",
"_	c #434343",
"                                  ",
"                                  ",
"                                  ",
"                                  ",
"                                  ",
"                                  ",
"                                  ",
"                                  ",
"                                  ",
"                                  ",
"                                  ",
"                                  ",
"             .+@##@+.             ",
"            $%&&&&&&%$            ",
"           .%&*=--;>&%.           ",
"           +&*,    '*&)           ",
"           !&= ~*{] =&^           ",
"           /&- {&&* -&/           ",
"           /&- {&&* -&/           ",
"           !&; ]{*] (&^           ",
"           +&>'    '{&)           ",
"           .%&*=--({&%_           ",
"            $%&&&&&&%$            ",
"             _)^//@)_             ",
"                                  ",
"                                  ",
"                                  ",
"                                  ",
"                                  ",
"                                  ",
"                                  ",
"                                  ",
"                                  ",
"                                  ",
"                                  ",
"                                  "};
