/* XPM */
static char * stick_active_xpm[] = {
"34 36 30 1",
" 	c #1D2324",
".	c #23292A",
"+	c #7E8282",
"@	c #CED0D0",
"#	c #F5F6F6",
"$	c #7E8182",
"%	c #353A3B",
"&	c #D5D6D7",
"*	c #FFFFFF",
"=	c #D4D6D6",
"-	c #E5E6E6",
";	c #676B6B",
">	c #292E2F",
",	c #646869",
"'	c #DCDDDE",
")	c #2D3333",
"!	c #2C3233",
"~	c #7D8081",
"{	c #CFD0D1",
"]	c #686C6D",
"^	c #CDCFCF",
"/	c #F4F5F5",
"(	c #292F30",
"_	c #F3F4F4",
":	c #2A3031",
"<	c #696D6E",
"[	c #2E3334",
"}	c #E6E7E7",
"|	c #222829",
"1	c #CCCECE",
"                                  ",
"                                  ",
"                                  ",
"                                  ",
"                                  ",
"                                  ",
"                                  ",
"                                  ",
"                                  ",
"                                  ",
"                                  ",
"                                  ",
"             .+@##@$.             ",
"            %&******=%            ",
"           .&*-;>>,'*=.           ",
"           +*-)    !-*~           ",
"           {*;      ]*^           ",
"           /*>      (*_           ",
"           /*>      :*_           ",
"           {*,      <*^           ",
"           $*'!    [}*~           ",
"           .=*-]((<}*=|           ",
"            %=******=%            ",
"             |~^//1~|             ",
"                                  ",
"                                  ",
"                                  ",
"                                  ",
"                                  ",
"                                  ",
"                                  ",
"                                  ",
"                                  ",
"                                  ",
"                                  ",
"                                  "};
