/* XPM */
static char *close_pressed[] = {
/* columns rows colors chars-per-pixel */
"28 28 69 1 ",
"  c #0F53CF",
". c #0F53D0",
"X c #0F53D1",
"o c #0F53D2",
"O c #0F55D6",
"+ c #0F55D7",
"@ c #0F56D9",
"# c #1148AE",
"$ c #114DBE",
"% c #114EBD",
"& c #1245A2",
"* c #1247A8",
"= c #1247A9",
"- c #1247AC",
"; c #1248AA",
": c #1248AC",
"> c #1248AD",
", c #1249B0",
"< c #1249B1",
"1 c #124AB3",
"2 c #134093",
"3 c #134094",
"4 c #13429A",
"5 c #13439D",
"6 c #13439F",
"7 c #1345A4",
"8 c #1345A5",
"9 c #1346A6",
"0 c #1346A7",
"q c #143F90",
"w c #143F92",
"e c #144090",
"r c #144297",
"t c #153572",
"y c #153672",
"u c #153E8B",
"i c #163265",
"p c #16356F",
"a c #163570",
"s c #163571",
"d c #163572",
"f c #172E58",
"g c #172E5A",
"h c #182A4D",
"j c #182A4E",
"k c #182B50",
"l c #182E5B",
"z c #182F5D",
"x c #192235",
"c c #192A4F",
"v c #192B4F",
"b c #1A1E27",
"n c #1A1E29",
"m c #1A1F2A",
"M c #1A202F",
"N c #1A2233",
"B c #1A2336",
"V c #1A2337",
"C c #1A2338",
"Z c #1A2439",
"A c #1A243A",
"S c #1B1D24",
"D c #1B1E27",
"F c #1B1F2B",
"G c #1B1F2C",
"H c #1B202B",
"J c #1B202C",
"K c #1B202D",
"L c #1B202E",
/* pixels */
"@@@@@@@@@@@@@@@@@@@@@@@@@@@@",
"@@@@@@@@@@@@@@@@@@@@@@@@@@@@",
"SSSSSSSSSSSSSSSSSSSSSSSSSSSS",
"SSSSSSSSSAy0$oo$0sZSSSSSSSSS",
"SSSSSSSVeO@@@@@@@@+5ASSSSSSS",
"SSSSSSzX@@@@@@@@@@@@.lSSSSSS",
"SSSSSd+@@@@@@@@@@@@@@+tSSSSS",
"SSSSz+@@@@@@@@@@@@@@@@+lSSSS",
"SSSCX@@@@@@@@@@@@@@@@@@.BSSS",
"SSS3@@@@@@@@@@@@@@@@@@@@wSSS",
"SSAO@@@@@iv,@@@@1ki@@@@@OCSS",
"SSy@@@@@@jSJ#@@<MSh@@@@@@aSS",
"SS9@@@@@@*nSJ#,LSb&@@@@@@7SS",
"SS$@@@@@@@8nSJKSb6@@@@@@@$SS",
"SSX@@@@@@@@0mSSD4@@@@@@@@XSS",
"SS.@@@@@@@@#JSSF=@@@@@@@@.SS",
"SS$@@@@@@@:HSFGSG=@@@@@@@$SS",
"SS9@@@@@@>HSF=;GSG:@@@@@@7SS",
"SSs@@@@@@vSF=@@;GSv@@@@@@pSS",
"SSZO@@@@@ic-@@@@:ci@@@@@+CSS",
"SSS2@@@@@@@@@@@@@@@@@@@@qSSS",
"SSSV.@@@@@@@@@@@@@@@@@@ xSSS",
"SSSSfO@@@@@@@@@@@@@@@@+lSSSS",
"SSSSSt+@@@@@@@@@@@@@@+ySSSSS",
"SSSSSSl.@@@@@@@@@@@@ gSSSSSS",
"SSSSSSSNu+@@@@@@@@+rxSSSSSSS",
"SSSSSSSSSCa8%XX%7pCSSSSSSSSS",
"SSSSSSSSSSSSSSSSSSSSSSSSSSSS"
};
