/* XPM */
static char *hide_pressed[] = {
/* columns rows colors chars-per-pixel */
"28 28 41 1 ",
"  c #0F53CF",
". c #0F53D0",
"X c #0F53D1",
"o c #0F53D2",
"O c #0F55D6",
"+ c #0F55D7",
"@ c #0F56D9",
"# c #114DBE",
"$ c #114EBD",
"% c #114EBF",
"& c #134093",
"* c #134094",
"= c #13439D",
"- c #1345A4",
"; c #1345A5",
": c #1346A6",
"> c #1346A7",
", c #143F90",
"< c #143F92",
"1 c #144090",
"2 c #144297",
"3 c #153572",
"4 c #153672",
"5 c #153E8B",
"6 c #16346E",
"7 c #16356F",
"8 c #163570",
"9 c #163571",
"0 c #163572",
"q c #172E58",
"w c #172E5A",
"e c #182E5B",
"r c #182F5D",
"t c #192235",
"y c #1A2233",
"u c #1A2336",
"i c #1A2337",
"p c #1A2338",
"a c #1A2439",
"s c #1A243A",
"d c #1B1D24",
/* pixels */
"@@@@@@@@@@@@@@@@@@@@@@@@@@@@",
"@@@@@@@@@@@@@@@@@@@@@@@@@@@@",
"dddddddddddddddddddddddddddd",
"ddddddddds4>#oo#>9addddddddd",
"dddddddi1O@@@@@@@@+=sddddddd",
"ddddddrX@@@@@@@@@@@@.edddddd",
"ddddd0+@@@@@@@@@@@@@@+3ddddd",
"ddddr+@@@@@@@@@@@@@@@@+edddd",
"dddpX@@@@@@@@@@@@@@@@@@.uddd",
"ddd*@@@@@@@@@@@@@@@@@@@@<ddd",
"ddsO@@@@@@@@@@@@@@@@@@@@Opdd",
"dd3@@@@@@@@@@@@@@@@@@@@@@8dd",
"dd:@@@@@@@@@@@@@@@@@@@@@@-dd",
"dd%@@@@@@@@@@@@@@@@@@@@@@#dd",
"ddX@@@@@@@dddddddd@@@@@@@Xdd",
"ddX@@@@@@@dddddddd@@@@@@@ dd",
"dd#@@@@@@@@@@@@@@@@@@@@@@$dd",
"dd:@@@@@@@@@@@@@@@@@@@@@@-dd",
"dd9@@@@@@@@@@@@@@@@@@@@@@6dd",
"ddaO@@@@@@@@@@@@@@@@@@@@+pdd",
"ddd&@@@@@@@@@@@@@@@@@@@@,ddd",
"dddi.@@@@@@@@@@@@@@@@@@ tddd",
"ddddqO@@@@@@@@@@@@@@@@+edddd",
"ddddd3+@@@@@@@@@@@@@@+4ddddd",
"dddddde.@@@@@@@@@@@@ wdddddd",
"dddddddy5+@@@@@@@@+2tddddddd",
"dddddddddp8;$XX$-7pddddddddd",
"dddddddddddddddddddddddddddd"
};
