/* XPM */
static char *maximize_toggled_pressed[] = {
/* columns rows colors chars-per-pixel */
"28 28 45 1 ",
"  c #0F53CF",
". c #0F53D0",
"X c #0F53D1",
"o c #0F53D2",
"O c #0F55D6",
"+ c #0F55D7",
"@ c #0F56D9",
"# c #114DBE",
"$ c #114EBD",
"% c #114EBF",
"& c #134093",
"* c #134094",
"= c #13439D",
"- c #1345A4",
"; c #1345A5",
": c #1346A6",
"> c #1346A7",
", c #143F90",
"< c #143F92",
"1 c #144090",
"2 c #144297",
"3 c #153572",
"4 c #153672",
"5 c #153778",
"6 c #153A7E",
"7 c #153C85",
"8 c #153E8B",
"9 c #16346E",
"0 c #16356F",
"q c #163570",
"w c #163571",
"e c #163572",
"r c #172E58",
"t c #172E5A",
"y c #182E5B",
"u c #182F5D",
"i c #192235",
"p c #1A2233",
"a c #1A2336",
"s c #1A2337",
"d c #1A2338",
"f c #1A2439",
"g c #1A243A",
"h c #1B1D24",
"j c #1B1D25",
/* pixels */
"@@@@@@@@@@@@@@@@@@@@@@@@@@@@",
"@@@@@@@@@@@@@@@@@@@@@@@@@@@@",
"hhhhhhhhhhhhhhhhhhhhhhhhhhhh",
"hhhhhhhhhg4>#oo#>wfhhhhhhhhh",
"hhhhhhhs1O@@@@@@@@+=ghhhhhhh",
"hhhhhhuX@@@@@@@@@@@@.yhhhhhh",
"hhhhhe+@@@@@@@@@@@@@@+3hhhhh",
"hhhhu+@@@@@@@@@@@@@@@@+yhhhh",
"hhhdX@@@@@@@@@@@@@@@@@@.ahhh",
"hhh*@@@@@@@@@@5@@@@@@@@@<hhh",
"hhgO@@@@@@@@@@h5@@@@@@@@Odhh",
"hh3@@@@@@@@@@@hh5@@@@@@@@qhh",
"hh:@@@@@@@@@@@hhh5@@@@@@@-hh",
"hh%@@@@@@@@@@@jhhh6@@@@@@#hh",
"hhX@@@@@@@@@@@uhhhh6@@@@@Xhh",
"hhX@@@@@6hhhhu@@@@@@@@@@@ hh",
"hh#@@@@@@6hhhj@@@@@@@@@@@$hh",
"hh:@@@@@@@7hhh@@@@@@@@@@@-hh",
"hhw@@@@@@@@7hh@@@@@@@@@@@9hh",
"hhfO@@@@@@@@7h@@@@@@@@@@+dhh",
"hhh&@@@@@@@@@6@@@@@@@@@@,hhh",
"hhhs.@@@@@@@@@@@@@@@@@@ ihhh",
"hhhhrO@@@@@@@@@@@@@@@@+yhhhh",
"hhhhh3+@@@@@@@@@@@@@@+4hhhhh",
"hhhhhhy.@@@@@@@@@@@@ thhhhhh",
"hhhhhhhp8+@@@@@@@@+2ihhhhhhh",
"hhhhhhhhhdq;$XX$-0dhhhhhhhhh",
"hhhhhhhhhhhhhhhhhhhhhhhhhhhh"
};
