/* XPM */
static char *maximize_prelight[] = {
/* columns rows colors chars-per-pixel */
"28 28 48 1 ",
"  c #0F56D9",
". c #1B1D24",
"X c #1E2128",
"o c #1F2128",
"O c #1F2228",
"+ c #1F2229",
"@ c #202229",
"# c #20222A",
"$ c #262931",
"% c #262A31",
"& c #262A32",
"* c #272B32",
"= c #2B2F37",
"- c #2B3037",
"; c #2C2F37",
": c #2C2F38",
"> c #2C3038",
", c #31363E",
"< c #32373F",
"1 c #33373F",
"2 c #333840",
"3 c #333841",
"4 c #333942",
"5 c #353A42",
"6 c #363C44",
"7 c #373D44",
"8 c #373D45",
"9 c #3C424A",
"0 c #3C424B",
"q c #3D434C",
"w c #3F4750",
"e c #404650",
"r c #404750",
"t c #414851",
"y c #424851",
"u c #424852",
"i c #424952",
"p c #535963",
"a c #545B65",
"s c #565C67",
"d c #575E68",
"f c #8C929F",
"g c #8C939F",
"h c #9FA6B3",
"j c #A0A7B4",
"k c #A1A7B5",
"l c #A2A9B6",
"z c #A9AFBD",
/* pixels */
"                            ",
"                            ",
"............................",
".........@:80rr08;@.........",
".......+1yiiiiiiiiu5#.......",
"......*eiiiiiiiiiiiiw*......",
".....>uiiiiiiiiiiiiiiu:.....",
"....*uiiiiiiiiiiiiiiiiu*....",
"...+eiiiiiiiiiiiiiiiiiiwO...",
"...3iiiiiiiiiiiiiiiiiiii2...",
"..@yiiiiiiiiiiiiiiiiiiiiy+..",
"..:iiiiiiiiiajzzzgiiiiiii-..",
"..8iiiiiiiiiiajzzziiiiiii6..",
"..qiiiiiiisiiiajzziiiiiii0..",
"..eiiiiiiildiiiphziiiiiiie..",
"..eiiiiiiizldiiiphiiiiiiiw..",
"..0iiiiiiizzksiiiaiiiiiii9..",
"..8iiiiiiizzzksiiiiiiiiii6..",
"..;iiiiiiifzzzksiiiiiiiii=..",
"..@yiiiiiiiiiiiiiiiiiiiit+..",
"...2iiiiiiiiiiiiiiiiiiii<...",
"...+wiiiiiiiiiiiiiiiiiiwo...",
"....$yiiiiiiiiiiiiiiiiu&....",
".....:uiiiiiiiiiiiiiiu:.....",
"......*wiiiiiiiiiiiiw%......",
".......X,tiiiiiiiiu4o.......",
".........+-79ee96=+.........",
"............................"
};
