/* XPM */
static char *maximize_pressed[] = {
/* columns rows colors chars-per-pixel */
"28 28 59 1 ",
"  c #0F53CF",
". c #0F53D0",
"X c #0F53D1",
"o c #0F53D2",
"O c #0F55D6",
"+ c #0F55D7",
"@ c #0F56D9",
"# c #114CB7",
"$ c #114DB9",
"% c #114DBE",
"& c #114EBD",
"* c #114EBF",
"= c #12429C",
"- c #1245A6",
"; c #124BB4",
": c #133F8F",
"> c #134093",
", c #134094",
"< c #1345A4",
"1 c #1345A5",
"2 c #1346A6",
"3 c #143470",
"4 c #143F90",
"5 c #143F92",
"6 c #144297",
"7 c #153572",
"8 c #153672",
"9 c #153E8B",
"0 c #16346E",
"q c #16356F",
"w c #163570",
"e c #163571",
"r c #163572",
"t c #172E58",
"y c #172E5A",
"u c #173057",
"i c #173156",
"p c #182E5A",
"a c #182E5B",
"s c #182F5C",
"d c #182F5D",
"f c #191C22",
"g c #192235",
"h c #192338",
"j c #192339",
"k c #192735",
"l c #1A1C23",
"z c #1A1C24",
"x c #1A2233",
"c c #1A2336",
"v c #1A2337",
"b c #1A2338",
"n c #1A2439",
"m c #1A243A",
"M c #1A2530",
"N c #1A2531",
"B c #1A2633",
"V c #1B1D24",
"C c #1B2224",
/* pixels */
"@@@@@@@@@@@@@@@@@@@@@@@@@@@@",
"@@@@@@@@@@@@@@@@@@@@@@@@@@@@",
"VVVVVVVVVVVllfflzVVVVVVVVVVV",
"VVVVVVVVVj3-%oo%-3hVVVVVVVVV",
"VVVVVVVc:O@@@@@@@@+=mVVVVVVV",
"VVVVVVsX@@@@@@@@@@@@.pVVVVVV",
"VVVVVr+@@@@@@@@@@@@@@+7VVVVV",
"VVVVd+@@@@@@@@@@@@@@@@+aVVVV",
"VVVbX@@@@@@@@@@@@@@@@@@.cVVV",
"VVV,@@@@@@@@@@@@@@@@@@@@5VVV",
"VVmO@@@@@@@@@@@@@@@@@@@@ObVV",
"VV7@@@@@@@@@$BCCCu@@@@@@@wVV",
"VV2@@@@@@@@@@$BCCC@@@@@@@<VV",
"VV*@@@@@@@#@@@$BCC@@@@@@@%VV",
"VVX@@@@@@@M;@@@&kC@@@@@@@XVV",
"VVX@@@@@@@CM;@@@&k@@@@@@@ VV",
"VV%@@@@@@@CCN#@@@$@@@@@@@&VV",
"VV2@@@@@@@CCCN#@@@@@@@@@@<VV",
"VVe@@@@@@@iCCCN#@@@@@@@@@0VV",
"VVnO@@@@@@@@@@@@@@@@@@@@+bVV",
"VVV>@@@@@@@@@@@@@@@@@@@@4VVV",
"VVVv.@@@@@@@@@@@@@@@@@@ gVVV",
"VVVVtO@@@@@@@@@@@@@@@@+aVVVV",
"VVVVV7+@@@@@@@@@@@@@@+8VVVVV",
"VVVVVVa.@@@@@@@@@@@@ yVVVVVV",
"VVVVVVVx9+@@@@@@@@+6gVVVVVVV",
"VVVVVVVVVbw1&XX&<qbVVVVVVVVV",
"VVVVVVVVVVVVVVVVVVVVVVVVVVVV"
};
