/* XPM */
static char *shade_pressed[] = {
/* columns rows colors chars-per-pixel */
"28 28 17 1 ",
"  c #0F56D9",
". c #114BB8",
"X c #114DBB",
"o c #1247A9",
"O c #1248AD",
"+ c #13439C",
"@ c #143D89",
"# c #143E8E",
"$ c #144198",
"% c #1A1E28",
"& c #1A1F2A",
"* c #1A2130",
"= c #1A2338",
"- c #1B1D24",
"; c #1B1D25",
": c #1B1E26",
"> c #1B202E",
/* pixels */
"                            ",
"                            ",
"----------------------------",
"----------------------------",
"----------------------------",
"----------------------------",
"----------------------------",
"----------------------------",
"----------------------------",
"----------------------------",
"-------------==-------------",
"------------>.X*------------",
"-----------%o  O&-----------",
"----------;$    +:----------",
"----------@      #----------",
"----------------------------",
"----------        ----------",
"----------        ----------",
"----------------------------",
"----------------------------",
"----------------------------",
"----------------------------",
"----------------------------",
"----------------------------",
"----------------------------",
"----------------------------",
"----------------------------",
"----------------------------"
};
