/* XPM */
static char *shade_inactive[] = {
/* columns rows colors chars-per-pixel */
"28 28 16 1 ",
"  c #1B1D24",
". c #1B1D24",
"X c #1C1E25",
"o c #1D1F26",
"O c #1F2027",
"+ c #1F2129",
"@ c #22242B",
"# c #3E4048",
"$ c #404249",
"% c #44454D",
"& c #45474E",
"* c #494B53",
"= c #4B4D55",
"- c #4E5059",
"; c #4F525A",
": c #5A5C64",
/* pixels */
"                            ",
"                            ",
"............................",
"............................",
"............................",
"............................",
"............................",
"............................",
"............................",
"............................",
".............@@.............",
"............O-;+............",
"...........X*::=o...........",
"...........%::::&X..........",
"..........#::::::$..........",
"............................",
"..........::::::::..........",
"..........::::::::..........",
"............................",
"............................",
"............................",
"............................",
"............................",
"............................",
"............................",
"............................",
"............................",
"............................"
};
