/* XPM */
static char *stick_toggled_inactive[] = {
/* columns rows colors chars-per-pixel */
"28 28 15 1 ",
"  c #0F56D9",
". c #1B1D24",
"X c #22242B",
"o c #25272D",
"O c #45474E",
"+ c #45474F",
"@ c #46474F",
"# c #464850",
"$ c #555760",
"% c #56585F",
"& c #565860",
"* c #565861",
"= c #565961",
"- c #575960",
"; c #5A5C64",
/* pixels */
"                            ",
"                            ",
"............................",
"............................",
"............................",
"............................",
"............................",
"............................",
"............................",
"............................",
"...........X@**#o...........",
"..........X&;;;;%X..........",
"..........@;;;;;;+..........",
"..........*;;;;;;=..........",
"..........*;;;;;;-..........",
"..........#;;;;;;O..........",
"..........o%;;;;$X..........",
"...........X+==OX...........",
"............................",
"............................",
"............................",
"............................",
"............................",
"............................",
"............................",
"............................",
"............................",
"............................"
};
