/* XPM */
static char * arrow_yellow_xpm[] = {
"16 16 2 1",
" 	c None",
".	c #B98C3E",
"                ",
"                ",
"                ",
"                ",
"                ",
"                ",
"      ..        ",
"       ..       ",
"        ..      ",
"         ..     ",
"        ..      ",
"       ..       ",
"      ..        ",
"                ",
"                ",
"                "};
