/* XPM */
static char * arrows_white_xpm[] = {
"16 16 2 1",
" 	c None",
".	c #DADADA",
"                ",
"                ",
"                ",
"                ",
"                ",
"                ",
"    ..  ..      ",
"     ..  ..     ",
"      ..  ..    ",
"       ..  ..   ",
"      ..  ..    ",
"     ..  ..     ",
"    ..  ..      ",
"                ",
"                ",
"                "};
