/* XPM */
static char * selected_yellow_xpm[] = {
"16 16 2 1",
" 	c None",
".	c #C99C4E",
"                ",
"                ",
"                ",
"                ",
"            .   ",
"           ..   ",
"          ...   ",
"     .   ...    ",
"     .. ...     ",
"     .....      ",
"      ...       ",
"       .        ",
"                ",
"                ",
"                ",
"                "};
